<?xml version="1.0" standalone="no"?>
<!DOCTYPE svg PUBLIC "-//W3C//DTD SVG 20010904//EN"
 "http://www.w3.org/TR/2001/REC-SVG-20010904/DTD/svg10.dtd">
<svg version="1.0" xmlns="http://www.w3.org/2000/svg"
 width="732.000000pt" height="732.000000pt" viewBox="0 0 732.000000 732.000000"
 preserveAspectRatio="xMidYMid meet">
<metadata>
Created by potrace 1.11, written by Peter Selinger 2001-2013
</metadata>
<g transform="translate(0.000000,732.000000) scale(0.100000,-0.100000)"
fill="#000000" stroke="none">
<path d="M3494 6523 c13 -82 17 -92 33 -86 12 5 14 3 8 -7 -5 -9 -4 -11 4 -6
6 4 9 11 6 16 -9 14 18 50 36 50 9 0 23 -8 32 -17 14 -17 11 -23 -44 -81 -60
-63 -64 -63 -44 5 2 6 -3 14 -12 17 -11 5 -14 2 -9 -9 3 -9 2 -14 -3 -11 -8 5
-30 -15 -46 -43 -6 -10 -4 -12 6 -7 8 4 5 0 -6 -9 -11 -9 -19 -17 -17 -18 2
-1 -2 -15 -8 -31 -6 -16 -13 -56 -16 -89 -3 -33 -16 -89 -29 -126 -13 -36 -35
-109 -50 -161 -15 -52 -32 -100 -37 -107 -5 -7 -5 -12 3 -15 7 -2 9 -12 5 -26
-4 -12 -11 -20 -16 -17 -5 3 -2 -7 5 -23 14 -27 14 -69 1 -102 -4 -11 -22 -16
-54 -18 -58 -2 -82 5 -82 24 0 8 -12 17 -27 20 -16 3 -35 11 -44 17 -15 11
-39 49 -39 61 0 11 36 6 48 -6 17 -17 25 -3 12 22 -9 16 -14 19 -25 10 -11 -9
-22 8 -59 82 -72 147 -99 192 -131 218 -27 22 -28 22 -11 2 11 -12 16 -25 13
-29 -4 -3 -7 -3 -7 2 0 4 -6 2 -14 -4 -11 -9 -28 2 -85 55 -39 36 -71 71 -71
76 0 6 6 5 15 -2 10 -8 15 -9 15 -2 0 6 -9 16 -19 22 -11 5 -25 16 -33 23 -7
7 -35 28 -63 46 l-50 34 33 -34 c17 -19 32 -39 32 -44 0 -6 -3 -6 -8 0 -12 16
-112 88 -182 131 -36 21 -67 41 -70 44 -17 17 -300 148 -305 140 -3 -5 -7 -33
-10 -62 -2 -29 -7 -80 -11 -113 -6 -61 -10 -111 -14 -200 -1 -27 -4 -44 -7
-37 -2 6 -9 12 -13 12 -11 0 -1 -110 11 -130 7 -11 8 -9 3 9 -4 17 -3 21 6 16
6 -4 10 -18 7 -31 -2 -14 0 -21 6 -17 6 4 8 -4 5 -20 -3 -15 -2 -24 2 -22 12
7 20 -21 9 -34 -5 -6 -6 -9 -2 -6 3 3 15 -14 25 -36 20 -46 23 -63 8 -54 -14
9 -13 6 14 -67 14 -36 27 -84 31 -107 l6 -42 -28 14 c-24 13 -29 13 -38 1 -9
-13 -16 -13 -50 0 -37 14 -30 21 15 17 30 -3 -32 39 -73 49 -23 6 -53 15 -66
21 -21 9 -23 8 -11 -5 10 -13 10 -16 -4 -17 -9 -1 -22 -2 -28 -3 -22 -3 -81
14 -163 48 -44 19 -147 55 -229 82 -152 49 -200 72 -161 75 11 1 26 1 33 0 6
-1 12 3 12 9 0 5 -8 10 -17 11 -32 1 -67 9 -75 17 -11 11 68 5 91 -7 11 -6 26
-11 33 -11 32 1 -89 51 -135 56 -29 4 -79 20 -112 37 -75 37 -162 59 -172 43
-8 -13 -8 -12 -16 -87 -6 -51 -23 -113 -28 -96 -1 4 -3 12 -4 17 -1 6 -3 25
-5 43 l-2 32 -8 -29 c-5 -16 -12 -51 -15 -79 -4 -27 -9 -59 -11 -71 -10 -41
-6 -202 6 -280 11 -76 61 -269 79 -311 5 -11 19 -47 31 -80 32 -89 41 -107 34
-68 -3 18 -1 34 6 38 18 11 23 -1 27 -63 2 -31 5 -63 8 -71 4 -10 -1 -10 -19
3 -34 22 -43 20 -21 -4 18 -20 17 -20 -13 -21 -18 -1 -41 -3 -52 -4 -11 -1
-29 -3 -41 -4 -11 0 -18 -5 -15 -9 3 -5 -23 -7 -57 -6 -157 8 -343 15 -466 19
-73 2 -136 6 -139 9 -3 4 12 6 34 7 21 1 55 2 74 4 19 2 44 3 54 4 11 1 16 4
13 8 -11 10 -258 -1 -301 -13 -27 -9 0 -24 42 -24 17 0 32 -4 32 -10 0 -5 -9
-10 -20 -10 -11 0 -20 -4 -20 -8 0 -5 58 -8 130 -8 71 1 125 -3 121 -7 -10
-10 -87 -15 -248 -16 -136 -1 -143 -5 -102 -62 11 -16 16 -29 10 -29 -6 0 -11
3 -11 8 0 10 -54 72 -63 72 -4 0 -2 -10 4 -22 12 -24 192 -251 219 -278 30
-29 75 -96 55 -80 -11 7 -25 19 -30 25 -49 48 -96 86 -82 65 10 -14 27 -40 38
-57 12 -18 24 -33 28 -33 4 0 13 -11 19 -25 11 -24 10 -25 -8 -15 -27 14 -25
4 7 -39 48 -64 106 -121 195 -193 49 -38 91 -75 96 -81 4 -7 20 -23 36 -37
l29 -25 -18 29 c-29 44 -87 110 -240 271 -57 60 -78 85 -72 85 10 0 239 -233
345 -350 126 -139 127 -140 114 -115 -6 11 -28 38 -50 60 -66 68 -67 115 0 70
20 -13 38 -22 40 -19 3 2 13 -8 23 -23 10 -15 29 -38 42 -50 33 -31 30 -3 -5
38 -44 54 -102 112 -102 103 0 -4 10 -18 22 -31 33 -36 16 -36 -24 0 -20 18
-62 55 -94 82 -117 101 -139 121 -179 160 -78 79 -163 185 -147 185 5 0 41
-33 79 -72 118 -123 218 -212 251 -222 29 -9 181 -159 229 -226 94 -130 105
-246 32 -336 -35 -42 -291 -299 -310 -310 -33 -19 -95 -71 -161 -136 -55 -54
-68 -73 -67 -95 1 -15 -1 -48 -5 -73 l-8 -45 34 1 c18 0 38 -2 43 -6 6 -3 28
-12 50 -19 22 -7 72 -29 112 -49 l72 -35 -19 -25 c-19 -23 -19 -42 0 -42 9 0
113 -64 137 -84 38 -32 103 -100 103 -107 0 -5 5 -9 10 -9 6 0 4 13 -5 30 -16
30 -7 41 14 17 41 -50 21 -315 -27 -354 -9 -8 -11 -12 -4 -8 6 3 12 1 12 -4 0
-6 -4 -11 -9 -11 -7 0 -13 -17 -36 -100 0 -3 -9 -32 -20 -65 -10 -33 -19 -64
-21 -70 -1 -5 -7 -30 -14 -55 -7 -25 -14 -53 -16 -63 -2 -10 -5 -26 -8 -35
-20 -68 -27 -305 -11 -321 6 -6 36 -13 66 -16 31 -3 76 -9 100 -13 30 -5 78
-2 149 11 58 10 146 20 196 21 78 2 90 0 91 -15 1 -13 -19 -23 -82 -43 -45
-14 -91 -26 -101 -26 -11 0 -28 -7 -38 -15 -14 -11 -16 -15 -5 -15 24 0 120
28 133 39 16 14 96 26 97 15 0 -5 2 -16 4 -24 2 -8 6 -33 10 -55 3 -22 18 -83
32 -135 14 -52 26 -99 28 -105 1 -5 5 -17 8 -25 4 -8 8 -24 10 -35 8 -43 39
-135 48 -141 5 -3 6 -11 3 -17 -4 -7 -4 -9 1 -5 4 4 14 3 22 -3 10 -9 13 -8
13 4 0 9 -4 19 -10 22 -13 8 -13 25 0 25 5 0 13 -15 19 -33 21 -70 69 -179 73
-166 4 11 8 10 22 -4 10 -9 19 -17 22 -17 5 0 42 21 58 33 6 4 55 39 109 77
113 80 140 105 291 256 61 61 143 132 181 157 75 48 157 116 118 97 -33 -15
-28 -5 14 36 41 40 118 91 179 118 45 20 118 18 184 -5 36 -13 170 -94 170
-104 0 -7 -29 8 -83 44 -57 39 -103 57 -155 60 -41 2 -77 -13 -67 -29 3 -4
-15 -17 -40 -29 -25 -12 -45 -23 -45 -24 0 -2 27 3 60 11 53 13 60 17 54 34
-5 18 -3 19 28 13 91 -19 184 -91 273 -210 16 -22 32 -42 35 -45 3 -3 17 -21
31 -40 59 -79 88 -101 206 -159 67 -34 126 -61 132 -61 15 0 14 -27 -1 -33
-24 -9 54 -34 91 -30 61 7 155 51 173 81 9 15 25 36 36 48 18 18 45 62 47 74
1 3 5 23 9 45 4 22 10 51 13 64 6 35 42 109 43 89 0 -10 3 -17 8 -17 22 4 32
-3 32 -21 0 -11 -3 -20 -8 -20 -4 0 -16 -24 -26 -52 -10 -29 -25 -69 -34 -88
-21 -50 -22 -58 -3 -56 21 4 44 48 29 57 -6 4 -8 15 -3 25 7 18 8 18 16 -1 6
-14 7 -10 3 14 -4 21 -3 31 4 27 6 -4 8 2 5 13 -5 21 25 81 42 81 5 0 4 4 -4
9 -11 7 -7 12 15 23 52 26 121 11 227 -49 65 -37 127 -80 139 -97 4 -6 8 -2 8
11 0 19 3 20 25 10 14 -7 25 -15 25 -19 0 -5 7 -8 15 -8 8 0 15 -4 15 -9 0 -5
8 -11 18 -14 9 -4 28 -14 42 -24 14 -9 -3 10 -36 42 -70 68 -76 74 -121 100
-32 19 -43 35 -24 35 6 0 44 -28 87 -62 42 -35 105 -86 140 -114 34 -29 61
-54 58 -57 -9 -9 92 -68 151 -87 75 -25 132 -13 189 39 16 14 25 20 21 12 -5
-9 -4 -12 2 -8 12 7 61 105 68 134 3 10 9 36 14 58 5 22 12 58 16 80 3 21 10
42 16 46 6 3 34 5 62 3 39 -2 46 0 30 6 -42 17 -24 22 55 17 102 -7 167 -28
276 -91 50 -28 104 -58 119 -66 16 -8 38 -24 50 -35 12 -12 63 -38 112 -58
109 -43 151 -55 141 -38 -4 6 -2 11 3 11 24 0 9 32 -24 51 -42 25 -45 31 -7
17 16 -6 44 -8 64 -4 39 7 37 -2 24 144 -5 59 11 63 20 5 5 -27 9 -51 10 -55
1 -5 2 -12 3 -18 0 -5 5 -10 9 -10 9 0 8 72 -1 87 -4 6 -3 13 1 17 4 4 7 42 8
84 0 63 6 91 31 149 17 40 26 70 20 66 -28 -17 41 62 77 89 95 70 228 100 348
78 49 -9 92 5 122 39 11 11 16 21 11 21 -4 0 -2 7 5 15 7 9 15 36 17 61 7 98
-59 164 -263 263 -105 52 -157 84 -192 118 -54 53 -62 68 -69 131 -10 88 94
234 252 352 33 24 76 59 94 77 19 19 41 31 48 28 8 -2 12 -1 9 4 -7 11 48 51
103 73 25 10 34 16 18 13 -15 -3 -53 -17 -83 -31 -31 -14 -58 -23 -61 -21 -6
7 257 163 316 189 51 22 67 18 19 -5 -42 -21 -90 -62 -86 -75 2 -5 -23 -36
-55 -67 -58 -57 -68 -77 -27 -55 18 10 24 9 32 -1 7 -11 8 -9 6 5 -2 10 6 23
17 30 11 6 22 14 25 18 3 4 18 12 33 17 22 9 27 8 21 -2 -4 -6 4 -3 17 9 31
26 77 46 81 34 2 -5 28 7 58 26 30 18 62 34 72 34 10 0 36 11 58 25 22 14 42
25 45 25 3 0 23 17 45 38 46 44 52 48 108 86 23 16 42 31 42 33 0 4 -61 -28
-70 -37 -18 -18 -119 -80 -130 -80 -8 0 11 26 43 57 31 31 57 62 57 68 0 14
-85 45 -136 49 -21 1 -57 9 -79 16 l-40 14 30 6 30 6 -37 14 c-21 8 -38 18
-38 22 0 20 179 -19 247 -54 13 -6 26 -9 29 -6 3 4 -30 23 -73 44 -43 21 -81
43 -85 49 -4 5 -33 11 -65 12 -79 3 -267 55 -232 64 13 4 20 8 14 9 -5 1 -17
3 -25 5 -19 5 -56 12 -150 30 -41 7 -86 18 -100 23 -14 5 -27 10 -30 10 -11 1
-46 14 -62 23 -23 12 -38 12 -38 -1 0 -5 5 -10 10 -10 6 0 16 -5 23 -10 7 -6
21 -17 32 -25 18 -13 14 -13 -28 -1 -27 8 -51 17 -54 20 -8 7 17 66 28 66 4 0
17 14 29 30 l22 31 -27 -7 c-26 -6 -27 -6 -15 16 13 24 47 56 110 101 34 25
120 122 92 105 -18 -11 -27 21 -11 41 24 28 132 94 141 85 8 -8 62 35 147 118
20 19 37 44 37 55 1 11 3 29 5 39 3 13 -4 24 -21 33 -14 7 -21 13 -15 13 18 0
-13 22 -36 24 -13 2 -38 6 -56 10 -20 5 -40 3 -55 -5 -13 -8 -30 -13 -40 -14
-9 0 -20 -4 -25 -8 -4 -5 -3 -7 2 -6 6 2 26 0 45 -4 19 -4 45 -9 57 -11 13 -3
31 -9 40 -15 17 -10 17 -10 1 -11 -23 0 -23 -13 1 -34 24 -21 15 -57 -25 -100
-31 -32 -44 -27 -20 8 17 27 22 61 7 51 -5 -3 -12 -1 -15 4 -4 5 -2 12 3 16 6
3 8 12 5 20 -4 8 -10 13 -14 10 -4 -3 -13 2 -20 10 -7 8 -27 17 -46 21 -19 3
-34 10 -34 14 0 5 -12 11 -27 14 -16 4 -38 9 -50 11 -13 3 -33 8 -45 11 -13 3
-27 6 -33 8 -48 11 -136 46 -212 83 -158 77 -247 183 -278 331 -16 75 -12 97
5 31 26 -103 75 -187 140 -239 23 -19 47 -40 54 -45 10 -10 97 -55 121 -63 6
-2 -6 7 -25 19 -19 13 -41 31 -48 41 -7 10 -19 18 -27 18 -7 0 -37 21 -65 47
-52 47 -83 102 -105 184 -14 53 -12 212 4 252 6 15 9 27 7 27 -2 0 3 21 11 48
43 138 61 236 54 298 -1 16 -61 -15 -95 -49 -24 -24 -24 -39 0 -19 5 5 21 13
36 19 26 12 26 11 18 -18 -5 -16 -9 -32 -9 -34 -1 -3 -1 -8 -2 -12 -1 -5 -4 2
-7 14 l-7 23 -30 -21 c-23 -16 -25 -19 -8 -14 17 5 22 2 20 -14 -1 -15 -4 -17
-14 -9 -10 8 -22 3 -49 -17 -32 -25 -37 -26 -51 -12 -14 13 -19 13 -52 0 -20
-8 -39 -20 -43 -27 -4 -6 -8 -8 -8 -4 0 4 -44 -14 -97 -41 -54 -27 -109 -52
-123 -56 -14 -4 -29 -11 -35 -15 -8 -7 -55 -22 -115 -37 -8 -2 -32 -6 -54 -8
-41 -4 -38 10 4 19 36 7 169 52 224 75 25 11 49 20 51 20 3 1 54 26 113 58
102 54 176 103 167 111 -2 2 -39 -15 -82 -37 -43 -23 -84 -41 -91 -41 -7 0
-12 -3 -12 -7 0 -7 -73 -46 -89 -49 -3 0 -26 -10 -51 -21 -94 -42 -178 -66
-248 -71 -41 -2 -68 -8 -62 -12 20 -12 -21 -17 -67 -8 -37 8 -43 14 -67 64
-15 30 -27 65 -28 78 -1 12 -8 23 -15 23 -9 0 -11 -6 -7 -16 4 -9 9 -27 11
-41 4 -24 4 -25 -12 -5 -9 11 -18 31 -21 45 -3 14 -10 36 -14 50 -11 30 -49
211 -54 260 -3 19 -5 35 -6 35 -2 0 -8 29 -25 133 -7 40 -5 46 25 77 19 19 31
38 27 41 -4 4 -17 -5 -30 -19 -25 -30 -42 -36 -33 -12 3 8 0 15 -7 15 -7 0 0
12 16 25 15 13 27 26 27 29 0 6 -28 1 -36 -7 -15 -14 -23 -6 -30 29 -5 28 -3
39 10 46 25 14 19 29 -9 22 -19 -5 -25 -2 -25 9 0 29 -16 26 -84 -14 l-67 -41
17 -26 c10 -15 24 -33 32 -41 12 -13 13 -9 9 23 -7 53 6 33 33 -47 21 -66 21
-147 0 -147 -5 0 -7 -8 -6 -17 2 -10 7 -40 11 -68 11 -73 11 -77 18 -115 3
-19 13 -78 22 -130 42 -262 90 -353 228 -435 43 -25 50 -26 99 -16 104 22 92
19 218 47 14 3 30 10 35 16 7 8 3 9 -15 4 -51 -13 -210 -19 -223 -7 -8 6 -30
13 -50 15 -61 8 -105 38 -109 76 0 3 -5 16 -10 30 -8 21 -5 20 21 -10 17 -19
30 -38 31 -42 0 -5 8 -8 18 -8 10 0 22 -4 28 -10 5 -5 21 -10 34 -11 53 -2
268 46 333 74 17 8 62 27 99 42 37 15 72 33 79 41 6 7 15 11 20 8 5 -2 22 2
38 11 42 21 54 20 41 -5 -6 -11 -32 -26 -58 -34 -42 -13 -44 -15 -16 -15 17
-1 53 10 80 24 27 14 54 25 60 25 7 0 14 7 18 15 3 8 10 15 16 15 14 0 3 -44
-27 -108 -30 -63 -32 -79 -33 -197 0 -93 23 -205 57 -269 9 -17 18 -37 19 -45
2 -8 7 -17 12 -20 5 -3 26 -26 46 -49 20 -24 36 -42 36 -39 0 2 17 -12 38 -32
21 -20 60 -47 87 -61 28 -14 52 -28 53 -32 2 -5 11 -8 21 -8 9 0 21 -4 27 -8
5 -5 28 -15 52 -22 23 -7 42 -17 42 -21 0 -4 -21 0 -47 8 -71 22 -89 27 -83
21 5 -6 145 -58 170 -63 28 -6 130 -56 130 -64 0 -4 -8 -15 -18 -24 -22 -20
-38 -11 -20 11 7 8 -5 5 -27 -8 -69 -38 -133 -110 -241 -272 -57 -87 -108
-158 -113 -158 -4 0 -25 -51 -46 -112 -21 -62 -42 -118 -47 -124 -5 -7 -3 -15
4 -22 13 -10 242 -90 277 -97 10 -2 36 -12 57 -23 68 -35 151 -39 124 -7 -9
11 -4 12 26 5 20 -5 42 -6 49 -4 7 3 20 -2 28 -11 9 -9 20 -15 24 -15 4 1 10
-7 14 -17 4 -10 8 -14 8 -10 1 7 23 -3 70 -30 2 -2 -16 -23 -39 -47 -35 -36
-47 -43 -61 -35 -18 9 -49 3 -49 -10 0 -10 -33 -10 -40 -1 -5 7 -131 -62 -211
-115 -21 -14 -42 -25 -47 -25 -5 0 -17 -10 -28 -22 -10 -13 -12 -17 -4 -10 8
6 18 12 22 12 23 0 -1 -26 -87 -90 -52 -39 -112 -89 -134 -111 -22 -21 -46
-38 -52 -37 -6 2 -34 -30 -61 -70 -31 -45 -55 -71 -63 -68 -7 2 -16 -3 -20
-12 -3 -9 -6 -17 -5 -17 1 0 -4 -13 -10 -29 -16 -42 -23 -93 -23 -164 1 -73
-6 -76 -13 -6 -8 65 -14 69 -14 8 0 -110 55 -235 145 -331 33 -35 67 -65 77
-67 23 -3 88 -39 88 -48 0 -5 -32 -29 -71 -54 -92 -59 -149 -118 -187 -196
-46 -92 -56 -128 -61 -207 -1 -8 -8 -4 -20 10 -16 20 -21 21 -35 10 -9 -7 -16
-20 -16 -27 0 -19 -19 -18 -27 1 -3 9 -20 23 -37 32 -17 9 -33 19 -36 23 -17
24 -285 111 -395 128 -87 13 -380 5 -462 -13 -30 -7 -33 -11 -34 -44 -1 -20
-2 -47 -4 -61 -7 -71 -18 -197 -19 -212 0 -10 -2 -18 -4 -18 -10 0 -85 62
-137 114 -96 95 -215 167 -351 211 -83 27 -120 33 -94 14 11 -8 -4 -9 -54 -5
-37 3 -70 7 -73 10 -2 2 -18 0 -34 -4 -16 -5 -29 -5 -29 -1 0 19 -177 -29
-213 -58 -60 -47 -106 -102 -131 -154 -14 -31 -28 -57 -31 -57 -2 0 3 20 12
45 8 25 19 45 24 45 5 0 9 6 9 13 0 33 128 139 200 167 43 16 66 35 30 25
-140 -41 -293 -196 -302 -307 -2 -20 -11 -31 -31 -39 -41 -17 -86 1 -150 62
-29 28 -86 80 -127 117 -41 37 -94 87 -118 111 -86 87 -210 132 -347 126 -89
-4 -109 -7 -172 -31 -24 -9 -46 -14 -49 -11 -5 5 -85 -33 -143 -68 -30 -18
-104 -78 -180 -145 -40 -36 -78 -64 -83 -62 -6 2 -8 -4 -5 -13 4 -9 1 -15 -8
-15 -7 0 -36 -24 -63 -52 -112 -120 -117 -124 -142 -124 -21 1 -28 11 -52 76
-16 41 -30 84 -32 95 -2 11 -9 47 -15 80 -6 33 -13 71 -16 84 -2 13 -7 56 -10
95 -3 39 -8 82 -10 96 -2 14 -7 61 -10 105 -3 44 -10 83 -13 87 -4 4 -25 3
-46 -3 -21 -6 -47 -13 -57 -15 -30 -6 -49 -12 -124 -32 -38 -11 -105 -28 -147
-37 -49 -11 -86 -25 -102 -40 -29 -27 -88 -43 -94 -26 -2 6 -14 11 -27 11 -27
0 -37 32 -29 95 2 22 5 49 5 60 0 11 29 108 65 215 75 219 88 301 68 419 -21
124 -63 185 -190 279 -82 60 -168 102 -225 109 -22 3 -41 9 -44 13 -7 12 120
128 135 123 11 -3 181 134 252 203 111 109 182 234 191 341 16 185 -84 383
-298 592 -58 57 -104 105 -101 108 3 3 59 6 124 8 66 1 125 6 130 9 6 3 13 2
17 -4 4 -6 10 -8 14 -6 4 3 125 7 270 10 145 3 267 8 271 11 5 3 -7 51 -26
108 -20 56 -37 107 -38 112 -2 6 -6 17 -9 25 -5 14 -30 89 -32 100 -1 3 -4 12
-7 20 -38 107 -105 326 -113 369 -2 13 -7 31 -10 41 -11 34 -16 65 -22 132 -5
66 -5 67 18 61 34 -7 136 -39 184 -57 284 -104 547 -183 705 -212 14 -3 41 -9
60 -14 19 -5 49 -12 65 -14 36 -7 62 -12 133 -27 77 -16 85 -10 66 43 -9 24
-17 48 -18 53 -2 6 -11 37 -21 70 -11 33 -20 62 -20 65 -1 3 -4 12 -8 20 -14
37 -154 484 -181 579 l-16 54 28 -23 c99 -87 196 -202 247 -295 35 -64 119
-215 131 -236 44 -78 170 -195 244 -226 19 -9 43 -19 53 -24 9 -5 39 -12 65
-16 267 -36 430 149 487 554 3 21 8 49 11 63 9 49 16 85 18 97 3 17 16 29 16
15 0 -6 6 -17 13 -24 23 -25 57 -77 57 -88 0 -5 4 -10 8 -10 5 0 14 -10 21
-22 39 -76 190 -286 271 -378 49 -56 185 -160 208 -160 17 0 109 228 148 365
9 33 19 67 21 75 2 8 4 16 4 17 0 2 5 17 10 35 9 30 12 44 24 118 2 14 7 57
11 97 6 64 5 72 -14 82 -10 6 -22 7 -26 4 -10 -10 -7 12 3 23 5 5 12 20 16 33
15 50 -17 7 -56 -74 -37 -79 -62 -105 -94 -96 -5 1 -5 -3 1 -9 9 -9 17 -9 32
-1 11 6 24 11 28 11 12 0 -6 -79 -27 -117 -12 -21 -23 -49 -25 -63 -7 -37 -33
-100 -48 -116 -8 -7 -16 -19 -18 -26 -6 -16 -49 31 -75 81 -10 18 -35 52 -56
75 -21 22 -52 68 -68 101 l-30 60 46 -50 c25 -27 40 -40 33 -28 -17 30 -4 39
28 19 40 -27 37 -14 -9 36 -82 89 -126 146 -156 206 -25 49 -9 59 30 17 13
-13 29 -25 34 -25 7 0 6 3 0 8 -6 4 -23 23 -39 42 -53 66 -144 157 -222 225
-44 37 -83 72 -89 78 -14 13 181 -120 230 -157 l40 -31 -34 45 c-51 66 -100
112 -113 104 -7 -4 -8 -3 -4 4 3 6 -3 16 -14 22 -11 6 -20 8 -20 4 0 -3 -15
11 -32 31 -69 78 -101 109 -95 93 4 -12 1 -18 -8 -18 -8 0 -15 5 -15 10 0 15
-21 12 -40 -5 -15 -14 -21 -12 -59 15 l-42 31 5 -38z m-2356 -592 c9 -4 41
-14 70 -21 29 -7 51 -14 49 -16 -2 -3 -43 4 -90 14 -47 10 -97 18 -110 18 -13
-1 -24 4 -24 12 0 14 73 10 105 -7z m2892 -21 c6 -11 8 -20 6 -20 -3 0 -10 9
-16 20 -6 11 -8 20 -6 20 3 0 10 -9 16 -20z m-2719 -4187 c13 -16 12 -17 -3
-4 -10 7 -18 15 -18 17 0 8 8 3 21 -13z m160 -120 c13 -16 12 -17 -3 -4 -10 7
-18 15 -18 17 0 8 8 3 21 -13z m2270 -476 c-13 -13 -15 1 -4 30 7 17 8 17 11
-1 2 -10 -1 -23 -7 -29z m-2277 -52 c3 -8 1 -15 -4 -15 -6 0 -10 7 -10 15 0 8
2 15 4 15 2 0 6 -7 10 -15z"/>
<path d="M2530 6349 c14 -11 34 -28 46 -38 21 -18 58 -25 48 -9 -3 5 -10 6
-15 3 -5 -4 -9 -1 -9 4 0 11 -73 61 -87 61 -5 -1 3 -10 17 -21z"/>
<path d="M2667 6259 c7 -7 15 -10 18 -7 3 3 -2 9 -12 12 -14 6 -15 5 -6 -5z"/>
<path d="M1406 5911 c-3 -4 6 -7 19 -7 14 0 22 2 19 5 -8 8 -34 10 -38 2z"/>
<path d="M1430 5861 c0 -12 108 -46 117 -37 3 3 -1 6 -11 6 -9 0 -36 9 -58 20
-48 23 -48 23 -48 11z"/>
<path d="M3137 5720 c-3 -14 1 -24 15 -31 11 -6 17 -17 14 -25 -3 -8 0 -14 7
-14 14 0 43 18 37 22 -3 2 -14 8 -25 14 -11 6 -25 21 -31 33 -11 22 -11 22
-17 1z"/>
<path d="M5013 5458 c1 -16 5 -28 9 -28 10 0 9 9 -2 35 -8 17 -8 16 -7 -7z"/>
<path d="M5020 5399 c0 -11 4 -18 10 -14 5 3 7 12 3 20 -7 21 -13 19 -13 -6z"/>
<path d="M5031 5353 c-1 -12 4 -25 9 -28 12 -7 12 2 0 30 -8 19 -9 19 -9 -2z"/>
<path d="M2678 4665 c-2 -2 -29 -6 -60 -9 -97 -9 -286 -66 -348 -104 -37 -23
-80 -72 -97 -112 -20 -46 -24 -184 -7 -257 27 -116 50 -163 151 -298 73 -99
96 -154 96 -234 0 -165 -157 -320 -335 -333 -42 -3 -47 0 -126 72 -87 79 -172
141 -184 134 -4 -2 -5 -14 -3 -25 2 -11 2 -25 -1 -32 -6 -15 -61 -19 -85 -6
-11 5 -19 6 -18 2 5 -28 -2 -42 -18 -36 -13 5 -15 1 -10 -23 8 -43 -2 -81 -24
-87 -10 -3 -20 0 -23 7 -2 6 -5 1 -5 -12 -1 -26 22 -86 41 -107 7 -7 31 -36
53 -64 26 -32 60 -60 95 -78 30 -15 57 -28 60 -29 3 0 30 -4 60 -9 73 -11 244
-13 300 -3 25 5 56 10 70 13 30 5 68 19 136 50 189 86 359 266 408 433 22 76
16 249 -12 320 -24 61 -44 90 -136 187 -36 39 -75 89 -86 112 -48 102 -7 189
96 207 57 10 129 19 149 17 41 -2 114 21 135 44 27 29 37 99 20 149 -13 40
-57 78 -111 95 -31 10 -174 22 -181 16z"/>
<path d="M6282 4467 c7 -8 17 -14 23 -15 5 0 21 -3 35 -7 14 -4 8 2 -15 14
-47 24 -61 26 -43 8z"/>
<path d="M4544 4404 c-15 -8 -34 -23 -41 -34 -7 -10 -20 -26 -29 -34 -8 -9
-21 -37 -29 -63 -23 -78 -95 -364 -106 -418 -23 -114 -41 -214 -44 -255 -2
-19 -7 -57 -10 -85 -20 -145 -30 -302 -26 -396 1 -34 28 -64 66 -73 61 -16
297 0 359 23 11 5 24 9 29 10 4 0 10 2 15 2 112 17 194 45 254 84 46 31 58 57
52 116 -5 50 -31 78 -73 80 -66 3 -101 2 -171 -5 -106 -11 -104 -11 -118 -20
-8 -4 -42 -10 -77 -12 l-64 -3 -11 37 c-6 20 -10 64 -8 97 3 57 4 60 28 57 14
-2 54 -4 90 -4 67 -2 76 2 280 95 30 13 70 28 89 32 51 11 93 37 119 76 20 29
23 43 19 90 -3 31 -11 65 -18 77 -32 51 -114 55 -214 12 -119 -52 -277 -89
-305 -71 -19 13 -17 100 4 166 2 6 6 28 10 50 l8 40 96 0 c94 1 123 4 214 24
24 6 58 13 77 16 19 3 38 8 43 11 12 8 71 13 208 19 298 12 352 32 363 136 10
93 -89 125 -373 123 -201 -1 -402 -14 -541 -33 -55 -7 -61 -6 -77 14 -23 29
-55 36 -88 19z"/>
<path d="M3288 4321 c-7 -12 -24 -21 -38 -21 -29 -1 -52 -16 -68 -47 -10 -19
-39 -146 -57 -256 -3 -17 -12 -68 -20 -112 -8 -44 -17 -93 -19 -110 -3 -16
-12 -70 -20 -120 -9 -49 -18 -110 -21 -135 -3 -25 -7 -52 -10 -60 -2 -8 -7
-35 -10 -60 -4 -25 -10 -63 -14 -85 -6 -35 -7 -91 -2 -195 0 -17 13 -43 29
-61 23 -26 35 -31 69 -31 23 0 51 5 61 11 11 6 22 8 24 5 3 -2 17 0 32 6 38
14 56 64 54 152 -1 40 2 109 7 153 4 44 8 86 8 93 0 6 10 13 21 13 27 2 22 2
86 -5 61 -6 68 -8 125 -24 22 -6 42 -10 45 -9 3 1 20 -8 37 -21 26 -18 31 -27
24 -40 -14 -26 -43 -169 -48 -240 -5 -58 -3 -64 16 -69 12 -3 21 -9 21 -13 0
-19 54 -27 90 -13 8 3 25 6 37 7 36 3 60 34 78 104 21 79 40 140 90 281 20 57
38 111 40 120 2 9 13 48 25 86 11 39 22 77 24 85 2 8 9 35 16 60 7 25 13 50
14 55 1 6 10 37 20 70 10 33 19 67 21 75 2 8 8 35 15 60 12 44 15 129 6 160
-14 49 -21 60 -48 73 -56 27 -155 -4 -182 -57 -13 -26 -73 -287 -81 -353 -2
-11 -6 -29 -9 -40 -3 -10 -8 -34 -11 -53 -3 -19 -11 -50 -18 -68 -11 -33 -12
-33 -62 -26 -27 3 -57 8 -66 9 -9 2 -34 6 -55 9 -68 11 -148 27 -183 38 -35
11 -34 5 -16 88 1 8 6 35 9 60 3 25 8 56 10 70 3 14 7 41 10 60 3 19 7 44 10
55 13 64 16 139 6 173 -24 91 -91 142 -122 93z"/>
<path d="M6815 4310 c-3 -5 -1 -10 4 -10 6 0 11 5 11 10 0 6 -2 10 -4 10 -3 0
-8 -4 -11 -10z"/>
<path d="M810 3865 c0 -4 7 -20 16 -37 18 -34 20 -110 5 -148 -10 -27 -53 -74
-97 -109 -15 -12 -25 -23 -22 -26 5 -5 45 24 89 65 32 30 71 133 68 181 -2 19
1 41 5 48 5 8 3 17 -5 22 -15 10 -59 12 -59 4z"/>
<path d="M6970 3515 c14 -8 21 -15 15 -15 -5 -1 15 -8 45 -16 30 -8 69 -21 85
-28 17 -8 59 -26 95 -40 78 -31 55 -8 -35 35 -114 54 -277 105 -205 64z"/>
<path d="M6535 2940 c-3 -5 1 -10 9 -10 9 0 16 5 16 10 0 6 -4 10 -9 10 -6 0
-13 -4 -16 -10z"/>
<path d="M4558 2809 c-18 -23 -39 -47 -45 -54 -36 -38 -105 -208 -119 -292 -2
-15 -7 -39 -10 -51 -14 -63 -15 -104 -4 -117 29 -35 51 -6 66 85 4 25 8 47 9
50 1 3 5 17 9 31 7 23 13 54 15 70 1 4 17 5 36 3 19 -2 51 -6 71 -8 26 -3 40
1 55 17 39 42 20 65 -54 65 -32 0 -61 2 -64 5 -8 9 16 63 35 80 14 12 28 13
75 5 73 -13 107 -5 107 25 0 42 -11 48 -86 56 -7 0 -15 12 -18 26 -3 13 -15
29 -25 35 -16 8 -25 3 -53 -31z"/>
<path d="M4055 2783 c-65 -82 -120 -206 -141 -315 -2 -13 -6 -34 -9 -48 -3
-14 -8 -48 -10 -77 -3 -41 0 -53 13 -58 20 -8 52 28 52 57 0 11 9 60 20 108
l21 87 47 -5 c96 -9 111 -6 122 23 15 39 3 56 -39 54 -101 -5 -113 9 -63 69
l27 32 57 -11 c73 -15 108 -7 108 25 0 27 -21 48 -53 51 -12 1 -25 3 -29 4 -4
0 -14 15 -23 31 -23 45 -48 38 -100 -27z"/>
<path d="M5227 2811 c-30 -36 -127 -223 -127 -246 0 -9 -4 -14 -9 -11 -6 4 -5
21 1 42 5 20 11 66 12 103 3 73 -13 111 -47 111 -24 0 -41 -20 -72 -87 -29
-63 -125 -363 -125 -391 0 -41 61 -30 68 13 2 11 10 40 19 65 8 25 16 50 17
55 2 6 6 18 10 27 4 9 9 22 10 30 9 42 29 108 33 105 2 -2 -4 -49 -13 -103
-21 -124 -20 -185 3 -201 23 -17 27 -17 60 11 20 17 37 50 57 110 16 48 33 89
39 93 7 4 8 0 3 -13 -4 -10 -10 -26 -12 -34 -2 -8 -11 -40 -19 -70 -18 -64
-25 -124 -15 -140 8 -14 43 -20 59 -11 6 4 14 32 17 62 3 30 14 86 25 124 68
235 81 291 76 329 -5 35 -19 55 -39 56 -3 0 -17 -13 -31 -29z m-45 -236 c-2
-14 -9 -25 -14 -25 -5 0 -7 3 -5 8 2 4 7 15 10 25 9 25 15 21 9 -8z"/>
<path d="M2675 2717 c-88 -50 -151 -188 -143 -312 4 -72 22 -100 67 -107 62
-9 137 69 171 180 17 54 32 128 32 162 1 36 -6 55 -27 75 -30 31 -49 31 -100
2z m49 -98 c-3 -90 -42 -195 -86 -232 -21 -18 -22 -18 -29 -1 -18 54 28 215
75 257 27 24 41 16 40 -24z"/>
<path d="M3301 2721 c-6 -10 -12 -34 -15 -52 -2 -19 -11 -72 -20 -119 -19
-103 -29 -233 -21 -260 7 -23 47 -27 64 -7 6 8 12 40 15 71 5 81 15 86 68 37
25 -22 45 -46 45 -53 1 -28 13 -72 21 -80 15 -15 60 2 65 23 13 47 -17 119
-68 169 -38 37 -43 50 -19 50 8 0 29 13 45 29 23 24 27 34 21 52 -5 13 -18 28
-28 33 -10 6 -44 37 -75 68 -59 61 -82 70 -98 39z m84 -151 c0 -8 -8 -16 -17
-18 -13 -2 -18 3 -18 18 0 15 5 20 18 18 9 -2 17 -10 17 -18z"/>
<path d="M3042 2682 c-23 -21 -44 -80 -76 -207 -30 -124 -31 -161 -5 -176 34
-18 46 -4 64 73 10 40 20 78 24 83 3 6 6 15 7 20 5 31 37 141 43 150 10 15 14
65 4 66 -4 0 -16 2 -25 4 -9 2 -25 -4 -36 -13z"/>
<path d="M1850 2664 c-117 -67 -187 -195 -156 -290 16 -50 138 -75 193 -39 25
16 32 64 11 66 -7 1 -35 2 -63 3 -74 4 -75 4 -75 30 0 58 50 119 126 157 64
30 99 66 83 85 -16 20 -72 14 -119 -12z"/>
<path d="M2152 2673 c-19 -17 -39 -108 -65 -298 -7 -46 8 -75 37 -75 33 0 42
20 49 108 8 102 15 109 88 84 l37 -13 -20 -62 c-24 -78 -21 -111 11 -115 28
-4 38 5 44 38 3 14 10 39 17 55 24 61 62 201 63 233 0 18 -5 37 -13 42 -13 8
-59 -7 -61 -19 -12 -86 -16 -91 -79 -78 -49 10 -50 10 -50 48 0 69 -18 86 -58
52z"/>
<path d="M5686 2554 c-8 -20 -8 -24 2 -24 4 0 8 9 9 20 2 24 -3 26 -11 4z"/>
<path d="M843 2424 c0 -17 2 -22 7 -13 5 6 6 18 3 26 -8 19 -10 16 -10 -13z"/>
<path d="M3950 1736 c0 -2 7 -7 16 -10 8 -3 12 -2 9 4 -6 10 -25 14 -25 6z"/>
<path d="M3870 1315 c0 -17 9 -19 28 -6 11 7 10 10 -3 15 -23 9 -25 8 -25 -9z"/>
<path d="M3796 1275 c-9 -26 -7 -32 5 -12 6 10 9 21 6 23 -2 3 -7 -2 -11 -11z"/>
<path d="M5870 1230 c0 -11 4 -20 8 -20 4 0 8 9 8 20 0 11 -4 20 -8 20 -4 0
-8 -9 -8 -20z"/>
<path d="M1886 923 c-4 -5 -11 -8 -15 -8 -7 0 -113 -66 -121 -75 -3 -4 -13 -9
-23 -13 -20 -8 -14 -27 9 -27 13 0 164 116 164 126 0 6 -6 5 -14 -3z"/>
</g>
</svg>
