<?xml version="1.0" standalone="no"?>
<!DOCTYPE svg PUBLIC "-//W3C//DTD SVG 20010904//EN"
 "http://www.w3.org/TR/2001/REC-SVG-20010904/DTD/svg10.dtd">
<svg version="1.0" xmlns="http://www.w3.org/2000/svg"
 width="300.000000pt" height="300.000000pt" viewBox="0 0 300.000000 300.000000"
 preserveAspectRatio="xMidYMid meet">
<metadata>
Created by potrace 1.11, written by Peter Selinger 2001-2013
</metadata>
<g transform="translate(0.000000,300.000000) scale(0.100000,-0.100000)"
fill="#000000" stroke="none">
<path d="M0 1500 l0 -1500 1500 0 1500 0 0 1500 0 1500 -1500 0 -1500 0 0
-1500z m1772 1149 c23 -12 64 -42 92 -68 70 -65 99 -83 187 -120 72 -30 124
-71 147 -116 6 -11 21 -66 35 -121 18 -72 38 -124 72 -182 76 -130 78 -168 18
-305 -33 -75 -40 -104 -62 -260 -12 -81 -41 -125 -110 -167 -114 -69 -149 -96
-196 -150 -27 -32 -68 -71 -89 -87 l-39 -28 -166 0 c-125 -1 -181 -5 -226 -18
-112 -32 -159 -17 -283 90 -49 42 -101 77 -138 92 -150 60 -181 95 -214 244
-17 72 -35 119 -71 181 -55 96 -73 154 -64 199 4 18 24 73 45 122 25 59 40
114 45 160 17 175 39 214 157 281 60 34 108 73 173 140 110 112 120 116 300
108 98 -4 142 -1 180 10 76 22 158 20 207 -5z m-801 -1799 c10 -6 19 -17 19
-25 0 -17 -26 -20 -35 -5 -18 29 -75 -7 -75 -48 0 -47 49 -79 77 -51 7 7 20 8
30 5 17 -7 16 -9 -6 -27 -57 -47 -136 -5 -136 73 0 66 68 108 126 78z m199
-25 c0 -34 1 -35 40 -35 39 0 40 1 40 36 0 28 3 35 18 32 14 -3 17 -17 20 -91
3 -81 1 -87 -17 -87 -16 0 -20 8 -23 38 -3 35 -5 37 -38 37 -33 0 -35 -2 -38
-37 -3 -30 -7 -38 -23 -38 -17 0 -19 8 -19 90 0 83 1 90 20 90 16 0 20 -7 20
-35z m395 9 c54 -58 17 -154 -57 -154 -79 1 -115 87 -62 149 34 41 84 43 119
5z m195 -64 c0 -73 -3 -90 -15 -90 -12 0 -15 17 -15 90 0 73 3 90 15 90 12 0
15 -17 15 -90z m270 70 c24 -24 25 -48 4 -78 -14 -20 -14 -24 0 -44 21 -29 20
-38 -2 -38 -10 0 -26 14 -35 30 -10 17 -25 30 -33 30 -9 0 -14 -11 -14 -30 0
-23 -4 -30 -20 -30 -19 0 -20 7 -20 90 l0 90 50 0 c37 0 55 -5 70 -20z m-1483
-426 c18 -43 33 -82 33 -86 0 -18 -38 -6 -43 12 -8 30 -65 28 -76 -3 -8 -21
-41 -34 -41 -17 0 10 49 139 61 162 17 32 32 16 66 -68z m201 31 c4 -80 10
-95 36 -95 34 0 44 18 48 85 2 48 7 60 21 63 15 3 17 -5 17 -57 0 -73 -14
-106 -51 -122 -22 -9 -36 -9 -58 0 -37 16 -51 49 -51 122 0 52 2 60 18 57 13
-2 18 -15 20 -53z m377 43 c24 -11 32 -28 19 -40 -3 -4 -17 0 -31 7 -49 25
-89 -26 -64 -81 11 -26 57 -34 78 -13 17 17 37 1 21 -18 -36 -44 -107 -34
-133 18 -19 36 -19 53 1 90 22 44 63 58 109 37z m205 -32 l5 -38 38 41 c46 50
81 58 45 10 -13 -17 -27 -37 -32 -44 -7 -9 1 -27 23 -56 26 -36 29 -45 16 -47
-9 -2 -23 4 -30 15 -36 49 -43 56 -53 49 -7 -4 -12 -20 -12 -37 0 -22 -5 -29
-20 -29 -18 0 -20 7 -20 83 0 46 3 87 7 91 14 14 28 -2 33 -38z m278 -34 l3
-72 44 0 c32 0 45 -4 45 -14 0 -10 -17 -15 -61 -18 -33 -1 -63 -1 -65 1 -2 2
-4 44 -4 93 0 80 2 89 18 86 14 -3 18 -16 20 -76z m339 -12 c18 -47 33 -86 33
-86 0 -1 -7 -5 -15 -8 -10 -4 -20 3 -27 19 -15 34 -54 33 -86 -2 -38 -41 -38
-15 -1 82 23 61 36 85 47 83 9 -2 30 -39 49 -88z m234 33 l44 -57 5 55 c4 39
9 54 20 54 12 0 16 -18 18 -87 3 -82 1 -88 -17 -88 -12 0 -34 20 -58 52 l-38
53 -5 -55 c-4 -40 -9 -55 -20 -55 -12 0 -16 18 -18 93 -3 112 6 117 69 35z
m366 23 c31 -37 31 -89 -2 -121 -20 -21 -34 -25 -80 -25 l-55 0 0 83 c0 46 3
87 8 91 4 4 29 6 56 3 38 -3 55 -11 73 -31z"/>
<path d="M1597 2635 c-50 -14 -71 -25 -46 -25 8 0 50 -19 94 -41 71 -37 181
-67 248 -69 27 0 -84 100 -141 127 -53 26 -85 27 -155 8z"/>
<path d="M1205 2608 c-25 -13 -125 -110 -125 -120 0 -4 10 -4 23 1 12 5 56 14
97 20 49 8 106 26 164 54 l89 42 -39 7 c-61 11 -187 9 -209 -4z"/>
<path d="M1384 2536 c-65 -32 -115 -48 -184 -60 -120 -21 -147 -41 -200 -146
-26 -52 -65 -106 -114 -159 -42 -44 -78 -92 -82 -106 -4 -15 -3 -57 2 -93 11
-85 11 -179 0 -264 -5 -36 -6 -78 -2 -93 4 -14 40 -62 82 -106 47 -51 87 -106
110 -152 60 -120 83 -136 219 -157 44 -7 106 -28 166 -55 53 -25 110 -45 129
-45 19 0 76 20 129 45 60 27 122 48 166 55 39 6 84 15 102 21 41 13 85 63 124
142 18 36 62 94 105 139 40 42 76 89 80 104 4 14 3 63 -1 108 -10 102 -10 150
0 252 4 45 5 93 1 107 -3 14 -38 58 -77 99 -43 44 -84 99 -105 140 -63 125
-91 145 -229 168 -42 7 -108 29 -166 56 -56 26 -110 44 -130 44 -22 0 -71 -17
-125 -44z m-284 -546 c22 -12 25 -27 11 -49 -8 -12 -14 -12 -39 -2 -16 7 -45
11 -63 9 -29 -2 -34 -7 -34 -28 0 -22 8 -28 65 -47 36 -12 73 -32 83 -44 26
-33 22 -76 -12 -110 -26 -26 -36 -29 -91 -29 -50 0 -104 15 -128 35 -1 1 2 14
9 28 l11 25 42 -19 c50 -23 89 -24 107 -3 21 25 -1 46 -67 66 -64 19 -94 46
-94 85 0 62 59 107 132 99 26 -3 57 -10 68 -16z m338 -47 l3 -63 69 0 69 0 3
63 c3 59 4 62 31 65 l27 3 0 -160 0 -161 -30 0 -30 0 0 65 0 65 -70 0 -70 0 0
-65 0 -65 -30 0 -30 0 0 161 0 160 28 -3 c26 -3 27 -6 30 -65z m677 37 c0 -24
-2 -25 -77 -28 l-78 -3 0 -34 0 -35 65 0 65 0 0 -30 0 -30 -66 0 -65 0 3 -37
3 -38 78 -3 c74 -3 77 -4 77 -27 l0 -25 -110 0 -110 0 0 160 0 161 108 -3
c107 -3 107 -3 107 -28z"/>
<path d="M1990 2450 c0 -5 4 -12 10 -15 5 -3 30 -45 55 -93 30 -59 64 -106
105 -147 33 -33 60 -55 60 -50 0 6 -9 47 -18 92 -27 120 -55 154 -169 204 -24
10 -43 14 -43 9z"/>
<path d="M928 2377 c-36 -23 -76 -50 -87 -61 -26 -24 -49 -87 -54 -152 l-4
-50 73 75 c48 49 88 103 114 154 23 42 37 77 33 76 -4 0 -38 -19 -75 -42z"/>
<path d="M2251 1955 c-13 -97 -11 -205 5 -263 6 -20 12 -12 40 50 57 123 57
163 1 261 l-33 58 -13 -106z"/>
<path d="M721 1916 c-38 -92 -39 -135 -3 -205 33 -66 52 -76 52 -29 0 19 5 61
11 93 8 44 8 79 -1 137 -7 43 -16 78 -20 78 -5 0 -22 -33 -39 -74z"/>
<path d="M2230 1563 c0 -5 -31 -39 -68 -78 -58 -61 -157 -215 -137 -215 4 0
37 18 75 40 75 44 113 83 128 132 15 47 21 128 11 128 -5 0 -9 -3 -9 -7z"/>
<path d="M826 1458 c17 -82 22 -97 51 -136 23 -30 71 -61 120 -76 20 -7 18 1
-24 81 -39 76 -133 193 -154 193 -4 0 -1 -28 7 -62z"/>
<path d="M1924 1190 c-11 -4 -56 -13 -100 -20 -70 -10 -215 -68 -229 -91 -3
-3 38 -9 91 -13 85 -7 100 -5 139 14 25 12 63 44 86 71 22 27 39 49 37 48 -1
0 -12 -4 -24 -9z"/>
<path d="M1180 1129 c77 -71 128 -93 200 -86 100 11 100 16 6 64 -81 41 -122
53 -221 67 l-40 6 55 -51z"/>
<path d="M1476 814 c-33 -33 -10 -104 33 -104 43 0 62 80 26 106 -24 18 -40
18 -59 -2z"/>
<path d="M1950 800 c0 -28 3 -31 28 -28 21 2 27 8 27 28 0 20 -6 26 -27 28
-25 3 -28 0 -28 -28z"/>
<path d="M490 431 c0 -5 -3 -16 -6 -25 -4 -12 0 -16 16 -16 16 0 20 4 16 16
-3 9 -6 20 -6 25 0 5 -4 9 -10 9 -5 0 -10 -4 -10 -9z"/>
<path d="M1886 428 c-9 -35 -8 -38 15 -38 16 0 19 4 14 23 -11 35 -22 41 -29
15z"/>
<path d="M2450 405 c0 -54 1 -55 28 -55 36 0 52 17 52 55 0 38 -16 55 -52 55
-27 0 -28 -1 -28 -55z"/>
</g>
</svg>
