<?xml version="1.0" standalone="no"?>
<!DOCTYPE svg PUBLIC "-//W3C//DTD SVG 20010904//EN"
 "http://www.w3.org/TR/2001/REC-SVG-20010904/DTD/svg10.dtd">
<svg version="1.0" xmlns="http://www.w3.org/2000/svg"
 width="1366.000000pt" height="1366.000000pt" viewBox="0 0 1366.000000 1366.000000"
 preserveAspectRatio="xMidYMid meet">
<metadata>
Created by potrace 1.11, written by Peter Selinger 2001-2013
</metadata>
<g transform="translate(0.000000,1366.000000) scale(0.100000,-0.100000)"
fill="#000000" stroke="none">
<path d="M6803 13640 c-18 -9 -40 -23 -48 -30 -8 -7 -15 -9 -15 -5 0 5 -8 1
-17 -7 -16 -14 -75 -49 -213 -126 -25 -13 -49 -28 -55 -32 -5 -4 -26 -17 -45
-28 -19 -10 -80 -45 -135 -78 -55 -32 -117 -67 -137 -77 -21 -11 -38 -24 -38
-30 0 -6 -3 -8 -6 -4 -4 3 -31 -9 -60 -28 -30 -19 -57 -35 -60 -35 -3 0 -28
-15 -57 -33 -29 -18 -73 -44 -99 -57 -27 -14 -48 -28 -48 -32 0 -5 -4 -8 -9
-8 -5 0 -49 -23 -98 -52 -48 -28 -101 -58 -118 -66 -16 -9 -32 -19 -35 -23 -3
-5 -22 -15 -43 -24 -20 -8 -37 -20 -37 -25 0 -6 -6 -10 -13 -10 -8 0 -55 -25
-105 -55 -50 -30 -96 -55 -102 -55 -5 0 -10 -4 -10 -10 0 -5 -4 -10 -9 -10 -5
0 -87 -46 -182 -102 -96 -55 -184 -106 -196 -112 -13 -6 -23 -14 -23 -18 0 -5
-5 -8 -11 -8 -6 0 -37 -16 -69 -35 -31 -19 -68 -41 -81 -48 -74 -40 -140 -80
-145 -88 -3 -5 -12 -9 -20 -9 -8 0 -20 -5 -27 -10 -11 -10 -153 -95 -243 -145
-82 -46 -89 -50 -94 -55 -3 -3 -25 -16 -50 -29 -80 -43 -84 -46 -98 -58 -7 -7
-18 -13 -24 -13 -6 0 -19 -6 -27 -14 -14 -12 -42 -28 -156 -90 -11 -6 -22 -13
-25 -16 -3 -3 -26 -17 -52 -30 -27 -14 -48 -28 -48 -32 0 -5 -5 -8 -10 -8 -14
0 -174 -92 -178 -102 -2 -4 -7 -8 -12 -8 -4 0 -64 -32 -132 -71 -67 -40 -136
-79 -153 -88 -16 -9 -32 -19 -35 -22 -3 -3 -12 -8 -20 -12 -8 -4 -37 -20 -65
-37 -27 -17 -58 -33 -67 -37 -10 -3 -18 -9 -18 -14 0 -5 -5 -9 -11 -9 -6 0
-59 -29 -118 -63 -58 -35 -133 -79 -166 -98 -33 -19 -67 -38 -76 -44 -9 -5
-36 -21 -60 -34 -24 -13 -46 -26 -49 -30 -3 -3 -21 -14 -40 -25 -48 -26 -90
-49 -197 -112 -50 -30 -96 -54 -102 -54 -6 0 -11 -8 -12 -17 0 -10 -1 -869 -1
-1910 0 -1729 1 -1893 16 -1908 9 -9 25 -17 36 -18 11 -1 20 -4 20 -8 0 -7 26
-23 145 -89 22 -13 60 -34 85 -48 25 -14 62 -36 82 -49 21 -12 40 -23 43 -23
3 0 22 -11 43 -23 20 -13 64 -39 97 -57 33 -18 74 -41 90 -50 17 -10 46 -26
65 -36 19 -11 37 -21 40 -24 5 -5 23 -15 88 -51 20 -11 60 -34 87 -50 28 -16
61 -35 75 -42 14 -6 27 -14 30 -17 6 -6 35 -23 99 -57 25 -13 54 -31 64 -41
11 -9 22 -17 26 -16 14 2 41 -9 41 -17 0 -5 6 -9 14 -9 8 0 21 -6 28 -12 7 -7
27 -20 43 -29 17 -9 57 -31 90 -49 33 -18 67 -38 75 -45 8 -6 31 -19 50 -29
19 -9 49 -25 65 -36 17 -11 46 -27 65 -37 19 -9 37 -19 40 -22 3 -4 26 -17 53
-31 26 -13 47 -27 47 -31 0 -3 6 -6 13 -6 7 0 39 -16 70 -36 32 -20 64 -37 72
-37 8 0 15 -4 15 -10 0 -5 15 -16 33 -24 17 -8 59 -31 92 -51 33 -19 76 -43
95 -53 19 -9 37 -20 40 -23 3 -3 30 -19 60 -36 93 -51 151 -84 250 -141 52
-31 120 -69 150 -85 30 -16 62 -35 71 -43 9 -8 19 -11 22 -7 4 3 7 1 7 -5 0
-7 4 -12 9 -12 4 0 47 -22 95 -50 48 -27 91 -50 96 -50 6 0 10 -3 10 -7 0 -5
10 -13 23 -19 37 -17 112 -59 117 -65 3 -3 20 -12 38 -20 17 -8 32 -18 32 -22
0 -5 5 -5 10 -2 6 3 10 1 10 -5 0 -16 46 -4 81 21 15 10 30 19 34 19 4 0 20 9
36 21 16 11 29 17 29 12 0 -4 4 -3 8 2 8 11 72 53 112 73 14 7 43 24 65 37 22
14 51 30 65 37 14 7 27 15 30 18 4 5 59 38 187 111 17 10 49 29 70 42 21 13
45 27 53 30 8 4 33 18 55 32 40 25 161 96 213 125 15 9 38 23 52 32 77 49 276
162 283 160 4 -1 7 2 7 7 0 5 8 12 18 15 9 3 28 13 41 21 21 12 26 12 35 0 6
-8 22 -19 36 -24 14 -6 43 -22 65 -36 22 -13 60 -36 85 -50 99 -56 137 -78
192 -111 31 -19 61 -34 67 -34 6 0 11 -4 11 -10 0 -5 4 -10 9 -10 5 0 42 -19
83 -43 40 -24 93 -55 118 -69 25 -14 116 -67 204 -117 87 -50 162 -91 166 -91
5 0 10 -4 12 -8 3 -8 192 -118 266 -156 20 -10 39 -22 42 -26 3 -4 14 -10 26
-14 20 -6 20 -12 20 -306 -1 -165 -4 -300 -7 -300 -3 0 -32 -16 -65 -36 -32
-20 -81 -48 -109 -63 -52 -29 -333 -192 -395 -230 -19 -11 -44 -25 -55 -30
-11 -5 -36 -20 -55 -33 -19 -13 -60 -36 -90 -52 -30 -16 -57 -31 -60 -35 -3
-3 -22 -15 -42 -25 -21 -11 -38 -23 -38 -28 0 -5 -4 -7 -9 -4 -5 3 -19 -2 -32
-12 -28 -20 -61 -39 -104 -61 -16 -8 -32 -17 -35 -20 -3 -3 -16 -12 -29 -19
-13 -8 -40 -23 -60 -34 -35 -20 -106 -60 -146 -82 -10 -6 -25 -17 -33 -24 -7
-6 -20 -12 -28 -12 -8 0 -14 -4 -14 -9 0 -5 -7 -12 -16 -15 -8 -3 -13 -2 -10
2 5 8 -127 92 -145 92 -5 0 -9 5 -9 12 0 6 -3 8 -7 5 -3 -4 -11 -3 -17 2 -6 5
-65 40 -131 79 -319 185 -456 262 -465 262 -6 0 -10 5 -10 10 0 6 -4 10 -10
10 -5 0 -39 18 -75 40 -36 22 -65 36 -65 32 0 -4 -4 -2 -8 4 -6 10 -41 31
-188 114 -24 14 -84 49 -134 78 -50 28 -95 52 -100 52 -6 0 -10 5 -10 10 0 6
-7 10 -15 10 -8 0 -15 5 -15 11 0 5 -5 7 -10 4 -6 -3 -10 -1 -10 6 0 7 -3 10
-6 6 -3 -3 -37 14 -75 39 -38 24 -71 44 -73 44 -3 0 -59 31 -125 70 -66 38
-124 70 -130 70 -6 0 -11 4 -11 8 0 4 -24 20 -52 35 -29 15 -60 32 -68 37 -51
31 -153 90 -156 90 -2 0 -33 18 -69 40 -36 22 -68 40 -71 40 -3 0 -18 8 -32
19 -15 10 -49 31 -77 46 -148 81 -351 201 -357 210 -4 5 -8 6 -8 1 0 -5 -8 -2
-17 6 -10 8 -43 29 -73 45 -30 17 -95 53 -144 81 -48 29 -93 49 -99 45 -6 -3
-7 -1 -3 5 4 7 2 12 -4 12 -10 0 -98 -47 -150 -80 -8 -5 -37 -22 -65 -38 -81
-47 -231 -134 -365 -212 -69 -40 -143 -83 -165 -94 -22 -12 -41 -24 -43 -28
-2 -5 -10 -8 -18 -8 -8 0 -14 -3 -14 -8 0 -4 -17 -15 -37 -25 -21 -9 -65 -34
-98 -55 -33 -20 -78 -46 -100 -57 -22 -11 -42 -23 -43 -27 -2 -5 -10 -8 -18
-8 -8 0 -14 -4 -14 -9 0 -5 -8 -11 -17 -14 -10 -4 -36 -17 -58 -29 -55 -32
-167 -97 -185 -109 -8 -5 -26 -15 -40 -21 -14 -7 -27 -15 -30 -19 -3 -3 -9 -8
-15 -10 -5 -2 -47 -26 -93 -52 l-82 -49 0 -945 c0 -889 1 -947 18 -960 9 -7
31 -20 47 -28 17 -8 48 -26 70 -40 22 -13 51 -30 65 -37 14 -7 27 -15 30 -19
3 -3 17 -12 31 -20 92 -49 115 -63 121 -73 4 -6 8 -8 8 -4 0 4 35 -14 78 -40
42 -26 98 -58 125 -72 26 -14 47 -28 47 -32 0 -5 4 -8 9 -8 13 0 155 -82 159
-92 2 -4 10 -8 18 -8 8 0 20 -5 27 -11 19 -16 177 -108 177 -102 0 2 7 -3 16
-11 8 -9 21 -16 29 -16 7 0 15 -3 17 -7 4 -10 57 -42 81 -50 9 -3 17 -9 17
-14 0 -5 4 -9 10 -9 5 0 33 -14 62 -31 59 -35 67 -40 223 -129 61 -35 117 -69
126 -77 9 -7 19 -10 22 -6 4 3 7 1 7 -5 0 -7 6 -12 14 -12 8 0 16 -3 18 -7 3
-8 66 -44 115 -67 13 -6 23 -14 23 -18 0 -5 4 -8 9 -8 8 0 197 -107 261 -148
14 -9 27 -17 30 -17 3 0 16 -8 30 -16 54 -34 131 -79 135 -79 3 0 28 -15 57
-33 56 -36 139 -83 175 -101 13 -6 23 -14 23 -18 0 -5 4 -8 9 -8 5 0 55 -27
111 -60 56 -33 104 -60 106 -60 5 0 84 -48 130 -78 10 -7 27 -15 36 -18 10 -4
18 -10 18 -15 0 -5 3 -8 8 -7 4 1 18 -5 32 -14 14 -8 102 -59 195 -113 94 -54
182 -106 197 -116 15 -11 29 -19 32 -19 3 0 29 -14 58 -31 29 -18 67 -40 83
-49 238 -139 255 -149 345 -200 41 -23 83 -49 93 -58 9 -8 17 -11 17 -7 0 4 8
1 18 -7 9 -9 75 -49 145 -89 70 -41 147 -85 171 -99 23 -14 78 -45 121 -70 42
-25 98 -58 124 -73 25 -15 57 -33 71 -40 14 -6 31 -17 38 -24 18 -17 59 -19
55 -2 -2 4 3 6 10 4 6 -2 30 7 52 21 22 13 48 27 58 30 9 4 17 10 17 15 0 5 9
9 20 9 11 0 20 4 20 8 0 4 19 18 43 30 48 26 75 42 244 141 67 39 126 71 132
71 6 0 11 3 11 8 0 4 9 12 20 17 49 25 125 68 130 74 3 3 19 13 35 21 17 8 35
19 40 23 9 7 66 40 277 161 48 27 235 136 269 156 14 8 59 34 100 58 41 24 81
47 89 52 67 42 191 110 199 110 6 0 11 4 11 8 0 4 24 20 53 35 28 16 66 37 82
47 54 34 138 80 147 80 4 0 8 5 8 10 0 6 4 10 10 10 5 0 38 17 72 38 35 21 70
41 78 45 8 4 29 15 45 26 59 36 401 235 435 253 19 10 49 27 65 38 17 10 53
31 80 46 28 14 62 35 77 45 14 11 29 19 33 19 3 0 29 15 58 33 29 18 59 36 67
40 8 4 33 18 55 32 57 35 109 63 115 61 3 0 16 9 30 22 13 12 30 22 37 22 7 0
13 5 13 11 0 5 4 8 9 4 5 -3 13 0 16 5 4 6 17 16 28 21 12 6 40 21 62 34 22
14 46 28 54 31 7 4 85 49 173 100 88 52 164 94 169 94 5 0 9 5 9 10 0 6 4 10
10 10 5 0 50 25 101 55 50 30 95 55 99 55 4 0 20 11 35 24 16 14 32 23 36 20
4 -2 14 3 22 11 9 8 17 15 20 15 2 0 78 43 168 96 90 54 178 104 194 112 17 9
33 20 37 26 4 6 8 7 8 2 0 -5 8 -2 18 6 25 22 91 58 105 58 9 0 12 435 12
1908 0 1703 -2 1910 -15 1923 -9 8 -26 20 -39 27 -40 23 -94 54 -141 80 -25
14 -62 36 -82 49 -21 12 -40 23 -42 23 -2 0 -42 23 -89 50 -47 28 -90 50 -96
50 -6 0 -11 5 -11 10 0 6 -7 10 -15 10 -8 0 -15 5 -15 11 0 5 -4 7 -10 4 -5
-3 -10 -1 -10 4 0 6 -3 10 -7 9 -5 -2 -52 23 -105 55 -54 32 -101 57 -104 56
-4 0 -10 3 -13 8 -5 7 -24 18 -116 67 -11 6 -22 14 -25 17 -3 3 -34 21 -70 40
-36 18 -66 37 -68 41 -2 5 -7 8 -12 8 -4 0 -64 32 -132 71 -67 40 -148 85
-178 101 -30 16 -59 33 -65 37 -5 5 -35 22 -65 38 -30 17 -95 53 -144 82 -49
28 -90 51 -92 51 -2 0 -33 18 -69 40 -36 22 -67 40 -70 40 -2 0 -28 14 -57 31
-29 18 -68 40 -85 50 -18 11 -50 29 -70 40 -21 12 -60 35 -88 51 -27 16 -61
34 -75 41 -14 6 -27 14 -30 17 -3 3 -25 16 -50 29 -25 13 -52 30 -60 36 -8 7
-25 16 -37 19 -13 4 -23 12 -23 17 0 5 -8 9 -18 9 -10 0 -23 5 -28 10 -14 14
-255 150 -266 150 -4 0 -8 4 -8 8 0 4 -12 13 -27 20 -16 7 -37 18 -48 25 -11
6 -68 39 -125 71 -58 32 -112 65 -120 72 -8 7 -18 13 -23 13 -4 0 -34 16 -66
35 -32 18 -67 37 -79 40 -14 5 -61 -17 -168 -80 -82 -48 -152 -92 -156 -98 -4
-6 -8 -7 -8 -3 0 4 -25 -8 -55 -28 -31 -19 -57 -35 -59 -35 -2 0 -44 -24 -93
-54 -49 -29 -109 -64 -133 -78 -50 -28 -296 -173 -320 -188 -21 -13 -119 -71
-152 -90 -87 -48 -234 -135 -238 -140 -26 -28 -100 -34 -100 -8 0 5 -4 6 -10
3 -5 -3 -10 -1 -10 4 0 6 -5 11 -11 11 -6 0 -31 14 -56 30 -24 17 -46 30 -49
30 -3 0 -60 32 -127 71 -67 39 -147 85 -177 101 -30 17 -59 34 -65 38 -12 9
-74 45 -130 74 -22 12 -42 24 -45 27 -5 6 -108 64 -147 83 -13 6 -23 14 -23
19 0 4 -4 7 -9 7 -9 0 -44 19 -193 106 -35 20 -88 50 -118 67 -30 17 -57 33
-60 36 -3 3 -36 22 -73 41 -38 19 -71 39 -74 44 -5 8 -7 273 -3 564 0 22 5 32
15 32 8 0 15 5 15 10 0 6 4 10 9 10 9 0 118 63 138 80 7 5 15 10 18 10 6 0
166 91 225 128 14 9 26 15 27 14 1 -1 26 14 55 33 29 19 58 35 65 35 7 0 13 5
13 10 0 6 4 10 10 10 5 0 34 16 64 35 30 19 58 35 61 35 3 0 24 12 48 27 23
15 45 26 50 25 4 -1 7 2 7 7 0 5 8 11 18 14 9 4 58 31 107 61 50 30 110 65
135 78 25 12 51 30 58 38 12 13 13 13 7 0 -4 -10 -2 -9 8 3 8 9 18 17 23 17 5
1 61 32 124 70 l115 68 40 -21 c22 -12 42 -25 43 -29 2 -5 8 -8 12 -8 5 0 31
-13 58 -29 26 -15 68 -39 93 -53 24 -14 121 -69 214 -123 94 -55 190 -110 215
-123 24 -13 56 -31 70 -40 45 -30 65 -42 80 -49 8 -4 64 -35 123 -70 60 -35
112 -63 117 -63 4 0 10 -3 12 -7 2 -5 19 -17 38 -27 19 -10 62 -35 95 -54 33
-19 76 -43 95 -54 19 -11 60 -35 90 -53 31 -19 68 -39 83 -44 15 -6 27 -15 27
-21 0 -5 8 -10 17 -10 9 0 24 -6 32 -13 22 -19 161 -97 172 -97 5 0 9 -4 9 -8
0 -4 12 -13 28 -19 15 -7 34 -17 42 -22 18 -13 231 -135 251 -144 8 -4 28 -15
44 -26 17 -10 80 -46 140 -81 61 -35 113 -68 117 -74 4 -6 8 -7 8 -3 0 4 24
-8 53 -26 30 -19 63 -38 75 -41 12 -4 22 -12 22 -18 0 -6 3 -8 6 -5 4 4 19 -2
33 -12 39 -28 114 -71 134 -78 9 -3 17 -10 17 -15 0 -5 5 -6 10 -3 6 3 10 1
10 -4 0 -6 4 -11 9 -11 6 0 52 -25 104 -55 51 -30 99 -55 105 -55 6 0 15 -6
19 -12 4 -7 36 -28 69 -45 l61 -33 44 24 c24 13 60 33 79 45 19 11 42 24 50
28 8 4 42 23 75 43 33 20 67 39 75 43 8 4 32 17 52 29 88 55 219 128 228 128
5 0 10 5 10 10 0 6 4 10 10 10 5 0 40 19 77 41 120 74 148 90 166 96 9 3 17 9
17 14 0 5 9 9 19 9 11 0 21 4 23 8 2 4 100 64 218 132 118 68 218 128 221 133
3 5 9 8 13 7 4 0 50 25 104 56 53 31 111 64 127 73 17 9 32 17 35 19 2 2 4
428 5 948 l0 946 -70 43 c-143 87 -278 165 -286 165 -5 0 -9 4 -9 10 0 5 -3 9
-7 8 -7 -2 -86 42 -163 91 -14 8 -27 16 -30 16 -3 0 -16 8 -30 16 -68 44 -182
109 -188 109 -5 0 -17 7 -27 15 -11 9 -105 65 -210 125 -104 60 -194 113 -200
117 -5 5 -21 14 -35 21 -14 7 -34 18 -45 25 -125 75 -235 137 -243 137 -6 0
-12 4 -14 8 -1 5 -46 32 -98 62 -52 29 -96 57 -98 61 -2 5 -12 9 -23 9 -10 0
-19 4 -19 10 0 5 -11 12 -25 16 -14 3 -25 9 -25 13 0 4 -12 12 -27 19 -16 6
-46 23 -68 37 -22 14 -47 28 -55 32 -8 4 -37 21 -65 38 -27 17 -57 35 -65 38
-8 4 -28 15 -45 26 -34 20 -66 39 -175 101 -41 24 -76 47 -78 51 -2 5 -9 9
-16 9 -8 0 -26 10 -42 23 -16 12 -31 22 -34 21 -3 -1 -14 4 -25 11 -23 13
-198 116 -265 154 -25 15 -54 32 -65 39 -11 6 -40 23 -65 37 -25 14 -52 30
-60 35 -14 9 -196 115 -280 163 -19 10 -89 51 -155 90 -66 39 -122 69 -124 68
-2 -1 -7 1 -10 6 -8 11 -61 43 -83 50 -10 3 -18 8 -18 12 0 4 -16 13 -35 21
-19 8 -35 17 -35 22 0 4 -7 8 -15 8 -8 0 -15 5 -15 10 0 6 -5 10 -12 10 -6 0
-64 32 -129 70 -64 39 -122 70 -128 70 -6 0 -11 5 -11 10 0 6 -4 10 -9 10 -5
0 -50 25 -101 56 -52 31 -115 68 -142 82 -27 15 -57 32 -66 37 -9 6 -57 34
-105 63 -49 28 -93 52 -98 52 -5 0 -9 5 -9 10 0 6 -6 10 -14 10 -8 0 -21 6
-28 13 -7 6 -35 24 -63 38 -49 27 -51 27 -82 9z m-4233 -5914 c0 -2 -7 -7 -16
-10 -8 -3 -12 -2 -9 4 6 10 25 14 25 6z m-390 -530 c0 -2 -8 -10 -17 -17 -16
-13 -17 -12 -4 4 13 16 21 21 21 13z m7150 -1920 c0 -2 -8 -10 -17 -17 -16
-13 -17 -12 -4 4 13 16 21 21 21 13z"/>
</g>
</svg>
