<?xml version="1.0" standalone="no"?>
<!DOCTYPE svg PUBLIC "-//W3C//DTD SVG 20010904//EN"
 "http://www.w3.org/TR/2001/REC-SVG-20010904/DTD/svg10.dtd">
<svg version="1.0" xmlns="http://www.w3.org/2000/svg"
 width="700.000000pt" height="700.000000pt" viewBox="0 0 700.000000 700.000000"
 preserveAspectRatio="xMidYMid meet">
<metadata>
Created by potrace 1.11, written by Peter Selinger 2001-2013
</metadata>
<g transform="translate(0.000000,700.000000) scale(0.100000,-0.100000)"
fill="#000000" stroke="none">
<path d="M3407 6924 c-1 -1 -56 -5 -122 -9 -66 -3 -131 -8 -145 -10 -14 -2
-50 -6 -80 -10 -30 -3 -62 -8 -70 -10 -8 -2 -35 -7 -60 -10 -127 -17 -364 -78
-549 -141 -386 -132 -811 -378 -1118 -646 -107 -93 -329 -324 -408 -423 -22
-27 -42 -52 -45 -55 -3 -3 -35 -45 -71 -95 -311 -428 -527 -941 -608 -1445
-38 -239 -44 -322 -45 -570 0 -234 16 -430 50 -604 4 -21 14 -77 19 -106 2 -8
8 -35 15 -60 7 -25 14 -56 17 -69 19 -107 123 -405 201 -576 292 -642 777
-1180 1388 -1540 90 -53 272 -147 349 -180 102 -44 205 -84 255 -99 30 -10 64
-21 75 -26 29 -13 186 -56 285 -79 126 -29 168 -36 311 -56 332 -45 711 -38
1039 20 8 1 35 6 60 10 238 38 584 153 859 286 482 233 943 618 1259 1051 50
68 182 266 182 272 0 2 19 37 43 78 50 86 142 273 182 373 15 39 33 84 40 100
49 118 142 454 160 580 3 22 8 45 10 52 2 6 7 38 11 70 3 32 8 61 10 64 2 3 6
50 10 105 3 54 8 108 10 119 5 25 5 398 -1 445 -2 19 -6 69 -10 110 -7 86 -29
231 -51 340 -9 41 -18 84 -20 94 -54 274 -226 700 -400 988 -83 138 -264 392
-303 428 -4 3 -40 43 -81 90 -520 587 -1233 976 -2025 1104 -63 10 -204 26
-295 32 -85 6 -329 12 -333 8z m-57 -160 c0 -2 -15 -11 -32 -20 -72 -36 -147
-156 -191 -304 -28 -94 -53 -196 -61 -250 -3 -19 -8 -44 -10 -56 -2 -12 -7
-45 -11 -75 -3 -30 -8 -65 -10 -79 -3 -23 -8 -70 -20 -215 -14 -172 -18 -416
-19 -1095 -1 -728 -2 -767 -20 -800 -32 -60 -148 -242 -204 -320 -97 -137
-435 -543 -542 -652 -58 -58 -131 -134 -164 -167 -65 -68 -134 -115 -121 -84
46 107 34 272 -30 418 -57 128 -118 193 -348 367 -174 132 -244 197 -293 273
-87 137 -87 292 0 428 72 113 167 178 268 185 48 4 68 0 115 -24 78 -37 187
-146 202 -200 13 -49 6 -169 -14 -225 -27 -75 -13 -114 44 -125 75 -15 121 96
123 292 1 94 -26 161 -92 237 -61 69 -175 149 -249 174 -178 60 -374 -23 -503
-210 -36 -53 -93 -167 -84 -167 2 0 -2 -20 -10 -45 -17 -58 -12 -204 10 -263
56 -153 155 -266 383 -438 204 -153 260 -209 306 -304 68 -144 72 -249 15
-366 -31 -61 -40 -72 -87 -96 -65 -32 -117 -41 -240 -43 -324 -4 -747 184
-911 405 -30 41 -104 177 -182 337 l-131 268 6 135 c6 118 10 169 32 330 5 31
28 160 39 215 30 146 115 409 188 579 228 535 598 1000 1074 1352 182 135 456
292 644 369 36 14 79 32 95 40 77 34 403 132 495 149 14 2 63 11 110 20 47 10
103 19 125 22 22 3 56 7 75 10 19 3 71 7 115 10 44 3 81 7 83 8 3 4 32 3 32 0z
m445 -8 c17 -2 61 -7 98 -11 37 -3 78 -8 90 -11 12 -2 39 -6 62 -10 22 -3 72
-12 110 -20 39 -9 79 -17 89 -19 280 -59 643 -204 917 -365 808 -478 1364
-1258 1554 -2184 l16 -78 -72 -122 c-259 -434 -432 -632 -677 -775 -138 -80
-253 -117 -406 -129 -114 -9 -129 -6 -199 47 -89 68 -130 141 -161 291 -25
124 -29 185 -29 403 1 164 4 212 14 222 8 6 64 29 124 49 185 63 225 86 306
178 143 162 185 251 188 400 4 168 -67 233 -254 233 -82 0 -97 -3 -157 -33
-121 -59 -213 -190 -282 -400 -62 -190 -71 -236 -81 -417 -10 -198 -15 -252
-35 -374 -31 -191 -125 -408 -223 -516 -86 -95 -262 -212 -405 -271 -50 -20
-59 -21 -82 -9 -107 56 -178 247 -216 585 -4 36 -8 76 -10 90 -2 14 -6 59 -9
100 -4 41 -8 82 -10 90 -2 8 -7 44 -10 80 -4 36 -9 74 -11 85 -3 11 -7 36 -10
55 -3 19 -19 78 -36 130 -79 248 -158 324 -338 325 -77 0 -92 -3 -155 -34 -51
-25 -90 -55 -147 -113 l-77 -79 34 85 c59 151 167 525 190 658 3 18 10 49 15
68 5 19 12 53 15 75 4 22 8 48 11 57 3 10 8 30 10 45 31 175 87 472 98 523 18
80 53 283 63 370 10 80 10 346 1 458 -4 53 -15 100 -28 128 -27 55 -95 112
-163 136 l-52 18 150 -5 c83 -3 164 -7 180 -9z m-328 -160 c40 -47 58 -201 58
-511 0 -183 -5 -253 -30 -405 -8 -47 -16 -101 -19 -120 -3 -19 -12 -71 -21
-114 -8 -44 -18 -93 -20 -110 -12 -68 -77 -393 -87 -431 -5 -22 -12 -50 -14
-61 -10 -54 -75 -298 -84 -315 -6 -10 -9 -19 -6 -19 6 0 -64 -200 -88 -250
-15 -33 -15 16 -12 675 2 391 6 721 9 735 3 14 8 68 12 120 3 52 7 111 10 130
2 19 7 55 10 80 3 25 13 85 21 134 65 381 170 566 261 462z m2178 -1896 c27
-10 29 -19 25 -108 -2 -68 -21 -112 -77 -187 -104 -136 -141 -164 -276 -210
-41 -13 -82 -28 -92 -31 -16 -7 -17 -3 -11 35 20 128 119 367 178 431 73 79
164 104 253 70z m-1916 -484 c59 -31 69 -4 -238 -621 l-288 -580 -2 116 -2
116 154 309 c85 170 194 391 242 492 49 100 93 182 98 182 4 0 20 -6 36 -14z
m-237 -113 c-27 -54 -106 -213 -176 -353 l-126 -255 3 100 c3 91 7 108 45 194
62 142 129 246 213 333 42 43 79 78 83 78 3 0 -16 -44 -42 -97z m373 -150 l16
-61 -841 -1688 c-463 -929 -843 -1690 -845 -1693 -7 -6 -85 30 -85 39 0 6 952
1919 1070 2150 10 19 93 188 185 375 381 775 470 952 477 946 4 -3 14 -34 23
-68z m2901 -202 c3 -46 -6 -70 -130 -323 -73 -150 -166 -340 -206 -423 -40
-82 -116 -238 -168 -345 -52 -107 -132 -271 -177 -365 -45 -93 -135 -278 -200
-410 -64 -132 -143 -294 -175 -360 -32 -66 -121 -250 -199 -409 -78 -158 -141
-292 -141 -297 0 -4 -19 -21 -42 -37 -60 -40 -72 -47 -67 -36 9 18 57 120 82
174 14 30 53 114 87 185 91 189 158 332 187 395 14 30 57 120 94 198 38 79 69
145 69 147 0 1 30 65 66 141 98 207 138 291 229 484 46 96 110 233 144 304 33
70 61 130 61 131 0 2 38 81 84 177 46 95 111 233 145 307 34 73 86 170 115
215 29 44 70 109 91 144 21 34 40 60 43 57 3 -3 7 -27 8 -54z m-2850 -136 c4
-33 7 -76 8 -95 0 -37 4 -28 -424 -895 -219 -443 -323 -655 -722 -1465 -242
-491 -359 -724 -366 -732 -11 -11 -102 25 -102 39 0 7 177 367 394 800 216
434 575 1153 797 1600 222 446 404 811 405 810 1 -1 5 -29 10 -62z m-1024
-216 c-55 -112 -150 -307 -212 -434 -121 -248 -263 -539 -395 -810 -45 -93
-135 -278 -200 -410 -171 -349 -298 -610 -379 -778 l-72 -148 -23 18 -24 19
91 185 c49 101 181 369 292 594 111 226 271 550 355 720 450 914 515 1042 576
1125 34 47 66 95 72 108 6 12 12 20 14 18 2 -2 -41 -95 -95 -207z m3882 -31
c-7 -175 28 -95 -547 -1238 -533 -1060 -534 -1063 -591 -1113 -31 -27 -58 -48
-60 -46 -3 4 57 131 264 554 67 138 153 313 190 390 98 202 363 747 540 1110
62 127 132 272 156 323 24 50 46 92 48 92 1 0 1 -33 0 -72z m-1662 -178 c0 -8
-27 -73 -62 -145 -34 -71 -88 -184 -120 -250 -32 -66 -97 -201 -145 -300 -48
-99 -106 -220 -130 -270 -24 -49 -93 -193 -154 -319 -61 -126 -111 -230 -111
-231 0 -2 -50 -106 -111 -232 -118 -241 -208 -427 -294 -608 -139 -290 -238
-495 -263 -545 l-28 -55 -58 -3 c-54 -3 -57 -2 -51 17 3 11 58 128 122 258 63
131 130 270 148 308 18 39 86 178 150 310 64 132 139 285 165 340 26 55 94
195 150 310 56 116 121 251 145 300 24 50 89 185 144 300 56 116 139 286 184
380 45 93 108 219 140 280 31 60 76 150 100 198 l42 88 18 -58 c10 -32 18 -65
19 -73z m-2129 -2 l-3 -122 -69 -141 c-163 -330 -518 -1049 -766 -1550 -147
-297 -280 -568 -296 -602 -17 -35 -34 -63 -40 -63 -6 0 -25 10 -44 23 l-33 23
110 224 c60 124 138 284 173 355 34 72 116 238 180 370 117 239 239 488 425
870 54 110 154 316 224 459 69 142 126 262 126 267 0 5 4 9 8 9 4 0 7 -55 5
-122z m986 -5 c1 -21 -24 -82 -75 -185 -71 -142 -198 -398 -589 -1193 -84
-170 -277 -562 -429 -869 -152 -307 -276 -563 -276 -568 0 -9 -50 0 -64 13 -5
4 13 53 42 111 28 57 166 337 307 623 142 286 324 655 405 820 586 1190 663
1341 671 1310 3 -16 7 -44 8 -62z m2312 -5 c-5 -13 -18 -41 -30 -63 -19 -36
-68 -140 -168 -355 -19 -41 -55 -118 -80 -170 -25 -52 -58 -122 -73 -155 -15
-33 -58 -123 -95 -200 -37 -77 -78 -165 -92 -195 -14 -30 -57 -120 -94 -198
-38 -79 -69 -145 -69 -147 0 -1 -34 -74 -76 -161 -42 -88 -89 -186 -104 -219
-50 -109 -170 -362 -273 -579 l-52 -108 -67 -34 c-38 -19 -68 -32 -68 -30 0 5
49 105 362 746 66 135 164 335 218 445 53 110 149 306 213 435 321 656 436
892 442 910 4 11 9 20 13 20 4 0 27 18 52 40 24 22 45 40 47 40 1 0 -1 -10 -6
-22z m-5978 -184 l-17 -27 -7 26 c-4 14 -10 52 -13 84 l-6 58 30 -58 c30 -56
30 -58 13 -83z m4939 9 l46 -48 -123 -250 c-326 -663 -436 -887 -535 -1090
-59 -121 -186 -380 -282 -575 -96 -195 -221 -450 -277 -566 l-103 -212 -46 -6
c-98 -13 -96 -17 -50 77 22 45 69 140 103 212 35 72 100 207 145 300 45 94
104 215 130 270 26 55 85 177 130 270 45 94 99 206 120 250 21 44 84 175 140
290 56 116 122 251 145 300 208 437 398 825 405 825 3 0 26 -21 52 -47z m729
-60 c-36 -72 -244 -498 -361 -738 -48 -99 -149 -306 -225 -460 -75 -154 -179
-365 -230 -470 -247 -507 -348 -714 -367 -752 -16 -33 -31 -46 -69 -62 -27
-11 -49 -16 -49 -11 0 4 82 174 181 377 100 202 246 499 324 658 78 160 249
506 380 770 130 264 261 530 291 591 52 107 57 113 102 133 26 11 48 20 50 21
1 0 -11 -26 -27 -57z m-1929 -8 l17 -45 -156 -317 c-165 -338 -314 -641 -473
-968 -54 -110 -163 -333 -242 -495 -80 -162 -200 -409 -268 -548 l-124 -252
-35 6 c-20 4 -39 10 -44 13 -4 4 47 117 114 252 67 134 183 370 259 524 76
154 254 516 397 805 143 289 319 648 393 798 74 149 137 272 140 272 3 0 13
-20 22 -45z m-1624 -127 c-154 -311 -471 -955 -608 -1233 -155 -316 -254 -515
-294 -592 -24 -48 -28 -52 -46 -41 -11 7 -20 18 -20 24 0 5 75 161 166 345 91
184 215 433 274 554 386 788 478 964 524 1013 26 27 54 59 62 70 8 12 17 22
19 22 2 0 -33 -73 -77 -162z m3230 -100 c-55 -112 -169 -342 -253 -513 -84
-170 -246 -499 -360 -730 -114 -231 -281 -568 -370 -750 l-161 -330 -55 -17
c-30 -9 -56 -14 -58 -12 -2 2 19 50 47 106 28 57 90 184 137 283 127 262 363
747 515 1060 56 116 122 251 145 300 45 95 280 578 343 705 l37 75 65 11 c36
6 66 12 67 13 1 0 -44 -90 -99 -201z m-5215 115 l39 -53 -42 -67 c-73 -116
-65 -114 -89 -19 -11 47 -21 93 -21 103 0 28 62 121 68 103 3 -8 23 -39 45
-67z m5044 47 c-1 -3 -23 -48 -49 -100 -201 -412 -277 -570 -323 -665 -29 -60
-99 -204 -155 -320 -102 -209 -200 -410 -342 -705 -90 -185 -250 -515 -320
-658 -27 -56 -57 -106 -66 -111 -10 -5 -39 -12 -65 -16 l-49 -8 15 29 c8 16
70 142 137 279 118 240 235 480 520 1060 152 309 303 618 483 986 l125 256 46
-11 c25 -6 45 -13 43 -16z m-770 -27 c-3 -5 -37 -75 -77 -158 -40 -82 -109
-224 -152 -315 -44 -91 -106 -219 -138 -285 -32 -66 -104 -214 -160 -330 -56
-115 -124 -255 -150 -310 -26 -55 -91 -190 -145 -300 -54 -110 -117 -240 -140
-290 -70 -147 -284 -589 -294 -605 -5 -9 -24 -15 -49 -16 l-41 -1 14 27 c7 14
43 87 78 161 36 74 118 242 182 374 65 132 157 321 205 420 192 395 375 770
594 1218 69 142 137 281 151 310 17 36 37 60 67 79 42 27 63 35 55 21z m1981
-105 c-98 -388 -253 -744 -458 -1049 -42 -62 -188 -259 -199 -269 -4 -3 -19
-20 -34 -38 -15 -19 -27 -32 -27 -29 0 2 128 258 284 568 156 310 320 637 365
727 45 89 83 162 85 162 1 0 -6 -33 -16 -72z m-3683 -68 c15 -17 -11 -73 -493
-1043 -550 -1106 -513 -1041 -571 -998 l-24 18 76 154 c41 85 186 379 322 654
136 275 340 688 453 919 l207 418 6 -51 c4 -29 14 -60 24 -71z m1224 28 c1 -3
-54 -118 -120 -255 -67 -136 -158 -324 -204 -418 -45 -93 -140 -287 -210 -430
-70 -143 -160 -327 -200 -410 -40 -82 -130 -267 -200 -410 -70 -143 -154 -316
-187 -385 -34 -69 -61 -126 -62 -126 -4 -5 -126 20 -126 26 0 4 23 54 51 111
28 57 82 167 119 244 37 77 136 279 220 450 84 171 192 391 240 490 48 99 165
338 260 530 94 193 205 420 247 506 l76 157 48 -37 c26 -20 48 -39 48 -43z
m201 -2 c0 -2 -61 -129 -136 -282 -75 -154 -171 -351 -214 -439 -43 -88 -130
-268 -195 -400 -65 -132 -150 -307 -190 -390 -100 -207 -318 -653 -396 -810
-52 -105 -68 -130 -86 -131 -12 -1 -26 2 -31 5 -6 4 30 88 85 201 52 107 132
272 178 365 45 94 138 283 205 420 67 138 155 318 195 400 40 83 131 269 202
415 71 146 169 347 218 447 79 161 92 182 119 191 36 12 46 13 46 8z m-3851
-93 c-13 -26 -49 -95 -78 -153 l-54 -105 -18 54 -19 54 57 91 c31 50 65 104
76 119 l20 29 20 -21 21 -20 -25 -48z m159 -30 c15 -9 28 -18 30 -19 1 0 -31
-72 -73 -159 -41 -87 -90 -189 -107 -227 l-32 -69 -23 43 c-27 52 -28 64 -7
103 8 17 52 101 97 188 45 86 83 157 84 157 2 0 16 -8 31 -17z m1359 -20 c-2
-5 -11 -24 -20 -44 -19 -42 -617 -1252 -680 -1376 -23 -46 -45 -83 -49 -83 -4
0 -19 10 -33 23 l-27 22 347 695 348 695 56 37 c62 40 64 41 58 31z m-1184
-68 l36 -15 -142 -285 c-78 -157 -144 -285 -147 -285 -3 0 -13 14 -23 31 l-18
32 77 161 c42 89 99 209 127 269 27 59 51 107 52 107 2 0 19 -7 38 -15z m185
-66 l32 -11 -57 -106 c-31 -59 -78 -150 -106 -202 -27 -52 -62 -117 -77 -145
-15 -27 -49 -92 -75 -143 l-48 -93 -17 26 c-18 27 -17 27 95 253 61 125 114
232 116 237 11 26 100 195 103 195 1 0 17 -5 34 -11z m415 -614 c-170 -338
-312 -614 -317 -612 -37 12 -28 37 108 313 76 154 206 417 289 587 139 284
153 308 181 316 17 5 34 10 38 10 5 1 -130 -276 -299 -614z m-191 552 c-1 -9
-83 -180 -181 -379 -97 -200 -189 -387 -203 -416 -27 -58 -25 -58 -71 10 l-25
38 65 122 c57 109 194 370 300 576 l38 73 40 -4 c31 -2 39 -7 37 -20z m210
-124 c-38 -76 -107 -214 -152 -308 -146 -300 -291 -590 -299 -598 -9 -9 -81
66 -81 84 0 12 43 103 275 574 97 198 181 365 186 371 5 6 38 12 74 13 l65 2
-68 -138z"/>
</g>
</svg>
