<?xml version="1.0" encoding="UTF-8" standalone="no"?><!DOCTYPE svg PUBLIC "-//W3C//DTD SVG 1.1//EN" "http://www.w3.org/Graphics/SVG/1.1/DTD/svg11.dtd"><svg width="100%" height="100%" viewBox="0 0 1701 1147" version="1.1" xmlns="http://www.w3.org/2000/svg" xmlns:xlink="http://www.w3.org/1999/xlink" xml:space="preserve" xmlns:serif="http://www.serif.com/" style="fill-rule:evenodd;clip-rule:evenodd;stroke-linecap:round;stroke-linejoin:round;stroke-miterlimit:1.5;"><path d="M1183.37,22.859c2.414,-2.913 475.604,-12.014 473.15,-15.359l-94.723,429.823l-241.041,-79.321l-2.749,214.744l212.293,-97.49l-36.321,216.593l-212.262,-4.964l36.71,92.18l349.005,-95.178l25.932,359.717c0,0 -385.429,15.695 -456.935,17.817c-19.797,0.587 -179.94,-318.087 -106.969,-784.148c16.282,-103.989 28.11,-223.284 53.91,-254.414Z" style="fill:url(#_Linear1);stroke:#000;stroke-width:15px;"/><path d="M769.871,95.84l-417.626,145.354l222.153,892.321l314.739,5.393l-215.094,-557.192l248.297,-60.183l25.38,615.384c70.614,-28.123 258.761,-49.532 245.298,-69.007c-239.948,-347.117 -47.963,-1045.35 -47.963,-1045.35l-345.956,66.314l127.125,283.619l-241.775,39.37l85.422,-316.027Z" style="fill:url(#_Linear2);stroke:#000;stroke-width:15px;"/><path d="M9.461,231.066l510.99,1.88l1.027,330.319l-217.848,-78.816l34.256,153.178l273.372,1.703l1.725,499.88l-605.483,-0.125l1.681,-400.377l254.346,132.036l0.869,-182.043l-253.393,0.56l-1.542,-458.195Z" style="fill:url(#_Linear3);stroke:#000;stroke-width:15px;"/><path d="M643.076,733.184c0,0 205.887,-60.261 213.372,9.601c7.485,69.861 9.396,95.738 18.086,202.479c8.69,106.74 -57.016,118.929 -57.016,118.929c0,0 -143.265,9.264 -159.288,5.116c-16.023,-4.148 -42.137,-79.436 -42.137,-79.436l26.983,-256.689Zm99.053,58.476c24.545,0 48.908,50.055 48.908,87.431c0,37.376 -22.685,90.881 -47.23,90.881c-24.545,0 -48.715,-49.505 -48.715,-86.881c0,-37.376 22.492,-91.431 47.037,-91.431Z" style="fill:#fff;stroke:#000;stroke-width:9.5px;"/><path d="M952.591,711.76l210.322,-23.211l27.376,151.157l-75.008,15.118l159.425,120.895l-89.792,50.169l-97.045,-110.275l44.419,118.584c0,0 -98.678,27.889 -100.029,30.302c-0.166,0.296 0.002,-79.704 0.493,-87.155c1.397,-21.176 -51.222,-195.279 -80.161,-265.584Zm106.639,28.764l62.627,49.23l-54.645,23.253l-7.982,-72.483Z" style="fill:#fff;stroke:#000;stroke-width:9.5px;"/><path d="M363.895,1098.21l-23.322,-171.462c0,0 -106.827,112.547 -128.011,9.559c-22.442,-109.105 128.159,-51.791 128.159,-51.791l13.334,-166.028c-169.157,-53.756 -289.052,41.4 -289.868,201.329c-0.029,5.563 -11.464,138.522 128.973,200.059c37.775,16.552 122.108,4.893 170.735,-21.666" style="fill:#fff;stroke:#000;stroke-width:9.5px;"/><path d="M373.181,735.423l25.709,380.37l86.242,-19.337l2.489,-152.472l56.071,-32.335l-12.351,177.391l95.789,-19.515l16.848,-355.366l-98.154,18.656l-2.189,130.426l-66.106,17.443l3.669,-167.384l-108.017,22.123" style="fill:#fff;stroke:#000;stroke-width:9.5px;"/><ellipse cx="920.092" cy="616.35" rx="67.998" ry="72.518" style="stroke:#000;stroke-width:9.5px;"/><path d="M918.222,416.397l30.072,190.721l-60.143,0l30.071,-190.721Z" style="stroke:#000;stroke-width:9.5px;"/><path d="M922.343,633.319c0,0 19.248,146.399 42.981,240.678c23.734,94.279 56.014,185.237 58.607,192.483c2.593,7.247 -162.187,21.163 -162.187,21.163c41.394,-193.127 51.387,-336.689 60.599,-454.324Z" style="stroke:#000;stroke-width:9.5px;"/><defs><linearGradient id="_Linear1" x1="0" y1="0" x2="1" y2="0" gradientUnits="userSpaceOnUse" gradientTransform="matrix(582.833,0,0,1053.92,1110.53,534.461)"><stop offset="0" style="stop-color:#3c6;stop-opacity:1"/><stop offset="1" style="stop-color:#030;stop-opacity:1"/></linearGradient><linearGradient id="_Linear2" x1="0" y1="0" x2="1" y2="0" gradientUnits="userSpaceOnUse" gradientTransform="matrix(841.46,0,0,1116.34,352.245,580.736)"><stop offset="0" style="stop-color:#3c6;stop-opacity:1"/><stop offset="1" style="stop-color:#030;stop-opacity:1"/></linearGradient><linearGradient id="_Linear3" x1="0" y1="0" x2="1" y2="0" gradientUnits="userSpaceOnUse" gradientTransform="matrix(605.483,0,0,908.144,7.5,685.138)"><stop offset="0" style="stop-color:#3c6;stop-opacity:1"/><stop offset="1" style="stop-color:#030;stop-opacity:1"/></linearGradient></defs></svg>