<?xml version="1.0" encoding="UTF-8" standalone="no"?> <!-- Created with Vectornator for iOS (http://vectornator.io/) --><!DOCTYPE svg PUBLIC "-//W3C//DTD SVG 1.1//EN" "http://www.w3.org/Graphics/SVG/1.1/DTD/svg11.dtd">
<svg style="fill-rule:evenodd;clip-rule:evenodd;stroke-linecap:round;stroke-linejoin:round;" xmlns:vectornator="http://vectornator.io" xmlns:xlink="http://www.w3.org/1999/xlink" xmlns="http://www.w3.org/2000/svg" xml:space="preserve" version="1.1" viewBox="0 0 1024 1024">
<metadata>
<vectornator:setting key="RulersVisible" value="1"/>
<vectornator:setting key="GridSpacing" value="36"/>
<vectornator:setting key="Units" value="Pixels"/>
<vectornator:setting key="DynamicGuides" value="0"/>
<vectornator:setting key="SnapToPoints" value="0"/>
<vectornator:setting key="CMYKEnabledKey" value="0"/>
<vectornator:setting key="SnapToGrid" value="0"/>
<vectornator:setting key="ShowGrid" value="1"/>
<vectornator:setting key="SnapToEdges" value="0"/>
</metadata>
<defs/>
<g id="Layer 4" vectornator:layerName="Layer 4">
<path d="M461.013+437.561C457.757+437.26+460.929+458.726+460.764+462.572C459.94+481.832+460.088+499.32+445.461+514.517C441.123+519.024+412.16+533.445+407.53+535.105C393.613+540.095+382.644+540.974+369.925+550.301C363.709+554.859+354.685+554.101+347.686+558.213C341.225+562.009+318.775+572.524+313.073+578.089C294.806+595.917+262.485+640.553+259.097+663.825C256.57+681.187+253.785+704.372+257.645+723.373C260.145+735.679+268.515+744.05+271.124+755.32C280.769+796.972+365.072+856.059+398.57+878.094C415.237+889.058+434.825+898.925+450.164+912.093C455.515+916.687+495.175+964.204+503.298+964.225C515.99+964.258+525.777+945.368+540.646+932.493C556.718+918.575+577.696+910.294+585.984+901.732C611.047+875.838+645.185+868.516+677.017+844.178C684.914+838.141+690.503+833.021+701.75+824.453C714.107+815.04+724.17+800.581+729.304+791.114C735.874+778.997+747.932+768.418+754.762+751.406C764.312+727.616+767.252+696.424+762.549+676.509C759.328+662.872+739.412+616.736+728.747+608.633L702.151+576.271C702.151+576.271+680.849+563.357+670.988+553.443C662.19+544.598+639.019+539.418+619.114+529.012C601.318+519.709+586.134+504.637+586.134+504.637L575.043+483.133C575.043+483.133+586.299+457.741+582.456+450.004C579.92+444.898+555.267+447.425+550.158+446.211C535.804+442.8+519.238+442.457+505.302+440.901C498.963+440.193+486.805+448.051+474.999+445.769C469.039+444.617+464.226+437.858+461.013+437.561Z" opacity="1" fill="#ffdb00"/>
<path d="M477.487+446.928C472.021+448.981+446.158+429.663+450.862+417.587C453.307+411.312+462.946+422.977+465.281+415.303C465.836+413.479+466.005+411.236+465.701+407.957C465.168+402.205+471.644+388.201+470.882+390.778C470.12+393.355+475.352+402.733+484.116+393.733C487.818+389.931+486.598+386.692+487.84+383.721C491.671+374.551+490.125+369.497+494.703+371.064C497.604+372.057+501.86+381.856+510.585+373.643C517.944+366.716+527.882+357.601+529.74+358.025C536.361+359.536+540.498+370.647+548.768+371.953C555.307+372.986+554.828+363.922+561.454+365.434C569.484+367.266+566.699+372.279+568.588+375.836C572.084+382.416+582.532+379.45+586.847+382.995C592.103+387.313+588.446+392.71+592.869+395.505C598.781+399.241+597.925+399.801+603.136+402.477C611.135+406.584+606.449+417.633+602.366+427.301C599.292+434.58+597.999+441.205+594.679+442.779C589.805+445.089+580.181+448.113+580.181+448.113C580.181+448.113+570.801+450.069+559.37+449.151C545.954+448.074+524.698+442.409+508.641+441.509C501.134+441.088+493.21+440.856+488.028+442.043C483.042+443.185+480.72+445.713+477.487+446.928Z" opacity="1" fill="#ffeb70"/>
<path d="M471.716+393.921C471.716+368.88+475.633+352.672+499.322+340.157C505.018+337.148+511.733+334.71+517.831+331.12C524.917+326.948+536.346+318.226+545.656+319.444C553.658+320.491+565.904+334.128+570.297+339.516C572.836+342.63+577.788+345.64+580.947+348.262C593.435+358.629+604.606+367.464+605.934+384.402C606.105+386.588+607.715+400.45+606.852+402.482C606.229+403.948+599.428+399.775+598.021+400.411C583.958+406.78+590.174+389.574+588.974+386.155C587.773+382.735+575.322+381.192+573.346+379.43C567.425+374.149+563.751+363.021+563.751+363.021C563.751+363.021+553.113+370.735+549+372.349C547.146+373.077+541.52+369.373+537.844+364.531C535.14+360.97+534.8+355.999+531.125+355.758C519.701+355.011+517.61+369.466+513.319+375.256C509.155+380.874+502.031+369.015+498.323+368.735C490.594+368.151+482.655+390.358+482.655+396" opacity="1" fill="#ffdb00"/>
<path d="M536.534+318.885C533.286+304.985+526.819+287.903+520.031+275.896C503.364+246.412+494.184+227.518+470.874+210.457C446.432+192.569+412.519+178.394+388.292+154.975C381.351+148.267+375.021+139.288+372.179+128.149C370.473+121.466+372.227+105.832+373.176+100.227C373.836+96.3322+374.82+71.3279+373.176+70.7489C369.202+69.3492+354.797+77.3656+352.109+79.2509C337.289+89.6458+312.228+103.685+301.009+108.32C296.069+110.36+282.25+127.02+280.684+138.954C279.118+150.888+296.589+187.202+306.528+200.842C310.638+206.483+337.377+235.018+334.709+239.969C331.659+245.627+318.541+241.089+306.823+238.944C290.756+236.003+273.864+237.056+267.938+235.754C251.653+232.177+212.337+256.832+197.984+265.348C182.149+274.743+163.568+310.655+154.654+325.807C141.564+348.055+111.933+403.574+103.706+433.463C95.5349+463.153+86.4425+477.185+100.659+505.658C103.347+511.042+146.175+556.24+151.322+559.391C171.178+571.545+194.57+578.953+208.545+568.596C216.81+562.471+224.283+553.192+230.286+543.852C233.569+538.744+234.249+530.778+239.397+529.887C239.397+529.887+263.391+531.481+267.029+527C270.667+522.519+290.799+511.551+294.118+509.73C307.185+502.559+323.801+497.937+342.173+494.759C349.592+493.475+361.619+492.55+369.091+491.878C377.649+491.108+396.74+486.52+400.463+482.041C404.186+477.562+410.104+473.757+412.812+469.614C422.768+454.379+433.314+435.458+439.617+422.426C441.38+418.779+444.983+418.841+447.356+415.761C449.009+413.615+449.329+408.158+451.109+406.366C456.291+401.15+458.615+391.434+462.592+385.602C478.939+361.626+486.337+353.988+510.541+339.116C517.099+335.087+537.521+323.106+536.534+318.885Z" opacity="1" fill="#ffdb00"/>
<path d="M540.566+318.747C541.49+313.311+539.781+310.802+540.215+304.65C541.072+292.501+543.09+280.327+539.938+269.813C536.249+257.507+525.657+243.59+523.886+230.556C520.339+204.451+524.79+194.222+526.357+171.156C527.306+157.197+536.971+145.237+539.26+131.763C539.882+128.1+543.735+108.235+547.684+105.91C551.335+103.761+569.215+132.014+571.504+134.668C582.743+147.699+582.804+153.793+586.282+170.853C590.642+192.244+578.631+221.15+567.54+238.561C559.896+250.561+550.26+266.052+550.721+280.319C551.365+300.266+551.925+305.181+549.339+320.409" opacity="1" fill="#ffdb00"/>
<path d="M550.221+320.521C545.121+324.048+561.686+299.195+563.886+295.147C572.326+279.62+599.873+239.76+613.25+227.549C628.996+213.174+642.041+205.238+663.156+196.952C678.208+191.044+687.065+189.078+698.898+184.437C704.142+182.38+712.767+182.674+718.006+176.963C725.874+168.385+746.525+165.15+742.097+154.287C736.763+141.199+736.289+135.961+745.692+113.41C747.81+108.329+766.587+117.51+776.512+121.61C786.437+125.711+805.702+146.438+809.032+155.307C815.121+171.521+822.119+216.132+812.247+232.736C806.036+243.182+805.355+245.471+795.146+250.979C784.937+256.488+763.189+261.471+771.077+280.045C777.7+295.641+791.85+290.698+801.787+291.095C811.723+291.492+847.527+299.249+864.775+312.787C889.16+331.927+879.313+350.819+890.465+372.151C902.156+394.514+903.336+396.134+910.245+411.387C918.84+430.361+915.362+447.459+909.596+473.483C904.766+495.281+901.931+498.751+900.461+508.98C899.758+513.869+911.353+537.996+905.911+556.13C902.384+567.88+901.098+590.465+890.584+599.131C883.369+605.079+875.32+633.406+869.118+638.578C865.925+641.241+863.426+649.717+858.468+655.533C850.588+664.776+839.326+671.978+830.617+673.876C819.244+676.355+806.69+677.652+795.483+676.601C787.025+675.807+771.298+675.607+760.141+664.126C746.914+650.513+743.951+626.956+730.42+606.45C713.344+580.571+673.019+551.698+665.406+547.341C657.793+542.983+656.146+540.95+651.837+536.511C645.657+530.145+641.254+513.013+638.428+500.272C637.489+496.036+628.935+459.662+628.935+459.662C628.935+459.662+627.097+430.414+628.12+424.87C630.643+411.187+644.93+381.61+634.304+372.054C630.755+368.862+621.08+383.609+616.418+378.276C607.128+367.648+595.811+362.527+591.403+357.318C584.784+349.494+556.992+333.084+557.635+328.67C558.009+326.102+553.724+318.099+550.221+320.521Z" opacity="1" fill="#ffdb00"/>
<path d="M600.882+361.899C600.302+363.985+603.563+358.465+604.786+356.666C607.028+353.372+611.005+343.735+611.005+343.735C611.005+343.735+631.457+333.366+642.948+330.723C645.12+330.224+658.087+323.961+659.218+327.542C660.021+330.084+655.226+343.328+654.749+346.204C652.976+356.893+644.749+366.009+641.78+372.913C638.81+379.818+634.123+385.432+628.98+390.595C625.257+394.333+623.713+398.721+619.589+402.035C618.436+402.963+615.456+402.07+613.276+409.384C611.095+416.697+611.402+414.214+610.536+412.563C609.759+411.081+608.746+400.295+607.475+391.25C606.125+381.639+604.52+373.725+603.891+371.563C603.126+368.93+599.703+365.684+599.33+363.77C599.175+362.98+601.097+361.124+600.882+361.899Z" opacity="1" fill="#bda300"/>
<path d="M479.627+354.133C470.415+340.576+456.403+319.54+439.258+313.603C434.331+311.897+429.877+314.94+425.148+315.52C421.17+316.008+415.805+313.671+412.557+317.437C409.723+320.723+412.694+325.836+413.208+329.364C415.027+341.854+412.987+345.866+420.313+356.049C424.173+361.413+430.448+369.521+437.467+373.411C443.949+377.004+448.21+378.391+453.047+380.903C456.11+382.494+463.494+387.335+467.913+385.168C468.26+384.997+470.04+381.8+470.04+381.099C470.04+377.682+471.083+372.241+471.791+368.939" opacity="1" fill="#bda300"/>
<path d="M463.16+544.234C469.305+541.239+464.844+543.691+474.779+534.409" opacity="1" fill="#ffdb00"/>
<path stroke="#bda300" stroke-width="3.64" d="M544.173+266.378C544.173+243.352+540.48+221.237+544.173+197.885C544.431+196.258+547.713+178.534+551.668+180.027C557.368+182.178+556.231+198.523+555.951+202.928C554.589+224.302+552.826+250.995+545.886+271.42" fill="none" stroke-linecap="round" opacity="1" stroke-linejoin="round"/>
<path stroke="#bda300" stroke-width="6.41" d="M482.472+445.629C482.719+445.98+504.715+441.398+522.525+443.551C529.039+444.338+534.778+446.713+540.055+447.436C549.971+448.797+557.106+448.438+556.617+449.679C555.155+453.386+552.744+462.813+552.409+464.702C550.842+473.543+546.741+482.896+540.449+489.984C534.156+497.072+525.672+501.895+515.34+501.676C499.624+501.343+492.343+491.861+488.614+480.008C484.884+468.155+482.58+455.391+481.073+445.578" fill="#bda300" stroke-linecap="butt" opacity="0.589286" stroke-linejoin="round"/>
</g>
<g id="Layer 1" vectornator:layerName="Layer 1">
<path d="M375.175+286.062C375.074+284.576+374.973+283.091+374.872+281.605" opacity="0" fill="#ffdb00"/>
<path stroke="#613504" stroke-width="2.68" d="M483.035+446.181C482.622+463.09+481.687+480.95+474.358+498.053C469.103+510.316+457.957+522.643+453.421+531.853" fill="none" stroke-linecap="round" opacity="1" stroke-linejoin="round"/>
<path stroke="#613504" stroke-width="2.68" d="M496.76+444.33C495.841+482.65+487.699+531.117+464.784+562.925" fill="none" stroke-linecap="round" opacity="1" stroke-linejoin="round"/>
<path stroke="#613504" stroke-width="2.68" d="M558.021+451.895C554.711+469.594+556.027+487.936+563.15+504.558C565.191+509.322+573.316+531.943+579.907+537.429" fill="none" stroke-linecap="round" opacity="1" stroke-linejoin="round"/>
<path stroke="#613504" stroke-width="2.68" d="M545.074+449.196C545.211+453.151+541.197+478.155+545.491+499.892C551.391+529.759+561.038+552.72+573.909+571.022" fill="none" stroke-linecap="round" opacity="1" stroke-linejoin="round"/>
<path stroke="#613504" stroke-width="2.68" d="M532.088+447.022C532.451+449.446+531.692+459.612+531.507+466.75C531.185+479.248+531.109+491.053+531.045+497.311C530.696+531.627+535.357+566.495+553.146+596.765" fill="none" stroke-linecap="round" opacity="1" stroke-linejoin="round"/>
<path stroke="#613504" stroke-width="2.68" d="M519.964+444.89C518.943+448.191+513.038+582.219+511.24+614.34" fill="none" stroke-linecap="round" opacity="1" stroke-linejoin="round"/>
<path stroke="#613504" stroke-width="2.68" d="M508.006+444.721C506.444+465.867+503.806+505.957+497.413+538.779C492.102+566.051+483.069+588.073+480.265+592.168" fill="none" stroke-linecap="round" opacity="1" stroke-linejoin="round"/>
</g>
<g id="Layer 2" vectornator:layerName="Layer 2">
<path stroke="#927d00" stroke-width="5" d="M584.377+448.289C554.559+516.552+623.687+521.842+669.463+551.035C710.072+576.933+742.331+618.419+758.475+662.77C766.948+686.046+765.461+713.314+758.475+736.618C728.986+834.99+648.562+856.438+572.596+910.643C547.881+928.279+525.696+948.483+501.909+967.154" fill="none" stroke-linecap="round" opacity="1" stroke-linejoin="round"/>
<path stroke="#927d00" stroke-width="5" d="M461.329+439.299C459.054+459.394+465.623+483.069+453.475+500.946C429.251+536.597+378.558+541.484+342.864+560.025C282.972+591.134+249.556+649.246+257.123+716.069C265.848+793.108+377.783+860.992+435.804+901.653C454.035+914.43+501.557+966.616+501.557+966.616" fill="none" stroke-linecap="round" opacity="1" stroke-linejoin="round"/>
<path stroke="#927d00" stroke-width="5" d="M478.347+446.363C473.037+449.149+445.406+423.669+451.512+416.181C453.356+413.92+461.14+422.515+463.948+417.466C467.367+411.315+461.418+401.315+467.22+394.99C473.001+388.688+476.655+402.041+482.928+394.348C486.544+389.914+489.581+371.361+496.673+370.588C502.399+369.964+502.507+380.89+511.726+376.367C519.519+372.545+521.113+359.416+529.398+356.46C535.955+354.121+538.646+373.088+549.688+370.588C551.793+370.111+559.71+362.364+561.469+362.882C564.552+363.79+566.95+375.318+569.978+377.652C574.367+381.036+582.952+379.465+586.995+383.431C591.95+388.293+583.114+393.743+590.267+399.485C593.36+401.968+600.659+398.764+602.703+400.769C609.683+407.618+599.663+439.758+590.922+444.436C564.943+458.339+506.906+431.375+478.347+446.363Z" fill="none" stroke-linecap="round" opacity="1" stroke-linejoin="round"/>
<path stroke="#927d00" stroke-width="5" d="M551.9+320.491C569.198+278.226+603.6+228.808+643.838+204.849C672.711+187.658+718.555+185.627+741.265+159.366C746.475+153.341+737.602+147.402+737.528+141.834C737.472+137.556+740.503+123.315+740.503+123.315C740.503+123.315+741.822+114.945+748.956+112.432C757.994+109.247+802.445+140.96+806.573+149.407C809.961+156.343+819.328+219.971+817.126+224.347C812.884+232.777+808.261+243.329+800.794+249.438C787.501+260.312+753.353+259.228+777.758+287.947C783.337+294.511+794.182+290.315+801.469+290.745C819.489+291.809+840.884+299.56+857.129+307.321C884.251+320.279+879.287+343.313+888.075+366.503C900.864+400.251+917.987+403.986+916.276+447.207C915.481+467.298+905.174+485.735+902.198+505.305C898.86+527.257+910.12+546.31+906.708+568.347C903.679+587.912+889.045+599.609+879.899+616.076C873.154+628.22+869.641+643.515+860.624+654.283C836.024+683.664+793.459+684.062+762.617+665.634" fill="none" stroke-linecap="round" opacity="1" stroke-linejoin="round"/>
<path stroke="#927d00" stroke-width="5" d="M642.329+375.545C613.588+447.934+628.345+467.044+650.589+539.413" fill="none" stroke-linecap="round" opacity="1" stroke-linejoin="round"/>
<path stroke="#927d00" stroke-width="5" d="M478.224+352.6C461.478+319.74+404.515+263.303+367.086+300.026C358.14+308.804+359.785+329.917+363.612+340.43C363.809+340.97+367.27+350.653+367.582+350.653C369.654+350.653+369.315+346.925+370.559+345.298C373.579+341.347+377.333+337.978+381.474+335.076C403.742+319.47+427.537+305.963+453.417+320.472" fill="none" stroke-linecap="round" opacity="1" stroke-linejoin="round"/>
<path stroke="#927d00" stroke-width="5" d="M537.533+321.101C527.257+275.733+498.532+230.913+460.675+202.342C437.496+184.848+396.587+171.885+381.48+146.475C374.472+134.689+366.733+119.583+370.353+105.376C372.24+97.9722+381.848+75.5121+372.971+69.4155C368.519+66.3581+355.899+79.3959+351.372+81.6165C334.316+89.984+298.351+107.711+285.922+121.43C264.884+144.651+303.391+194.283+316.029+211.333C319.88+216.527+337.475+233.692+333.046+241.514C331.44+244.351+293.47+237.473+287.885+236.377C265.583+232.001+245.752+240.992+226.362+250.504C213.773+256.68+199.813+264.351+189.709+274.264C163.713+299.77+116.474+387.012+107.241+423.245C102.073+443.527+91.8352+468.689+95.4603+490.029C101.162+523.596+163.457+587.481+200.836+573.51C223.653+564.982+227.662+541.344+245.342+529.201C250.995+525.319+256.636+529.423+262.359+528.559C273.518+526.875+277.395+512.515+286.576+507.368C297.6+501.188+313.425+503.321+325.847+499.02C343.057+493.06+376.485+492.253+393.186+487.211C401.569+484.68+418.482+464.384+426.347+444.664C437.826+415.882+452.876+423.909+461.397+383.414" fill="none" stroke-linecap="round" opacity="1" stroke-linejoin="round"/>
<path stroke="#927d00" stroke-width="5" d="M409.439+319.867C412.222+341.716+418.183+362.819+439.028+374.506C451.872+381.707+463.518+379.585+470.867+394.005" fill="none" stroke-linecap="round" opacity="1" stroke-linejoin="round"/>
<path stroke="#927d00" stroke-width="5" d="M470.493+391.638C464.221+354.714+495.695+338.705+525.855+328.261C531.21+326.406+541.36+317.46+547.686+319.011C555.323+320.885+563.706+335.302+570.013+339.944C596.492+359.428+613.064+375.669+607.225+410.042" fill="none" stroke-linecap="round" opacity="1" stroke-linejoin="round"/>
<path stroke="#927d00" stroke-width="5" d="M544.957+320.715C533.119+318.925+543.518+286.946+540.74+274.226C537.928+261.35+527.306+252.302+523.871+239.664C514.858+206.505+524.714+173.927+534.786+142.305C535.898+138.815+546.905+103.257+547.686+102.874C551.42+101.043+551.778+110.109+554.633+113.097C568.918+128.047+581.759+139.723+586.386+161.29C597.606+213.577+569.502+230.208+552.152+272.766C547.583+283.972+555.977+322.382+544.957+320.715Z" fill="none" stroke-linecap="round" opacity="1" stroke-linejoin="round"/>
<path stroke="#927d00" stroke-width="5" d="M598.831+364.733C610.435+334.374+649.045+298.39+683.633+301C697.267+302.029+713.047+315.249+715.387+328.261C715.795+330.531+717.514+352.6+712.41+352.6C711.202+352.6+694.01+337.649+691.075+336.049C665.651+322.191+635.707+325.657+614.667+343.351" fill="none" stroke-linecap="round" opacity="1" stroke-linejoin="round"/>
<path stroke="#927d00" stroke-width="5" d="M660.81+330.208C655.838+339.965+656.071+351.677+650.887+361.849C648.345+366.837+645.251+371.758+641.788+376.582C630.747+391.96+615.943+406.356+603.256+418.805" fill="none" stroke-linecap="round" opacity="1" stroke-linejoin="round"/>
<path stroke="#927d00" stroke-width="5" d="M385.235+289.361C377.561+289.361+371.536+280.387+363.253+280.387" fill="none" stroke-linecap="round" opacity="1" stroke-linejoin="round"/>
</g>
<g id="Layer 3" vectornator:layerName="Layer 3">
<path stroke="#ffffff" stroke-width="5" d="M50.3479+529.057C51.0414+544.313+55.5149+584.743+55.6659+614.252C55.7543+631.519+52.4141+632.633+57.1122+632.392C76.1995+631.413+71.8504+627.103+97.2445+624.316C157.443+617.709+185.018+614.903+191.213+616.975C201.094+620.281+258.247+621.64+297.843+624.819C378.899+631.327+460.583+640.533+527.127+642.164C598.897+643.923+669.116+642.354+747.32+642.098C790.025+641.958+907.779+634.547+907.088+638.026C906.397+641.506+925.966+640.05+934.124+641.893C940.131+643.25+948.58+643.464+956.368+645.02C965.975+646.939+981.834+654.77+989.676+653.674C993.647+653.12+1000.25+613.55+1002.5+604.397C1008.85+578.503+1012.58+563.95+1015.35+554.577C1016.39+551.051+1007.93+546.493+1001.98+542.413C995.176+537.75+990.227+533.629+981.801+530.971C964.852+525.625+951.662+526.612+943.803+526.074C934.042+525.406+925.707+524.862+911.443+524.708C908.596+524.678+786.888+526.595+758.131+525.857C684.016+523.954+630.297+528.123+618.54+526.206C599.741+523.142+578.771+522.833+551.799+522.072C515.821+521.056+475.397+520.196+475.397+520.196C475.397+520.196+418.292+511.446+350.386+508.726C309.2+507.077+293.814+503.754+255.415+502.755C234.947+502.222+212.6+501.224+188.355+499.245C172.585+497.957+167.374+495.495+133.408+496.789C99.2094+498.092+66.4451+513.971+54.5025+524.158C51.9102+526.37+50.1074+526.037+49.0211+526.998C47.3528+528.473+50.298+527.958+50.3479+529.057Z" fill="#ffffff" stroke-linecap="round" opacity="1" stroke-linejoin="round"/>
</g>
<g id="Layer 5" vectornator:layerName="Layer 5">
<path stroke="#a4a4a4" stroke-width="5" d="M48.2765+526.353C48.2765+526.353+91.2609+493.891+146.668+495.946C284.231+501.049+530.135+523.672+694.632+524.971C769.419+525.562+751.731+526.716+826.383+524.935C840.368+524.601+911.374+520.265+964.743+527.347C994.785+531.334+1007.97+547.195+1015.75+552.109" fill="none" stroke-linecap="square" opacity="1" stroke-linejoin="round"/>
<path stroke="#a4a4a4" stroke-width="5" d="M54.2697+633.127C56.5398+634.345+142.479+616.46+173.394+617.937C255.264+621.847+335.624+628.628+417.567+636.163C492.273+643.033+570.759+644.666+656.854+645.346C731.641+645.937+805.831+642.653+880.483+640.872C921.313+639.898+947.728+643.325+988.047+654.476" fill="none" stroke-linecap="butt" opacity="1" stroke-linejoin="round"/>
<path stroke="#a4a4a4" stroke-width="5" d="M48.3052+526.333C48.3052+526.333+59.0785+617.286+53.2298+635.562" fill="none" stroke-linecap="butt" opacity="1" stroke-linejoin="round"/>
<path stroke="#a4a4a4" stroke-width="5" d="M1016.06+552.698C1011.34+570.161+1000.58+616.102+1000.58+616.102C1000.58+616.102+994.522+635.422+989.885+654.796" fill="none" stroke-linecap="square" opacity="1" stroke-linejoin="round"/>
</g>
<g id="Layer 6" vectornator:layerName="Layer 6">
<path stroke="#a4a4a4" stroke-width="5" d="M66.5929+418.016M907.143+451.293L790.753+495.797C785.821+497.564+781.799+503.427+781.799+508.727L781.799+622.392C777.742+621.678+773.161+621.753+768.37+622.993C751.058+627.541+737.034+644.343+737.034+660.28C737.034+676.217+751.058+685.276+768.37+680.728C785.472+676.255+799.356+660.092+799.706+644.343C799.706+644.155+799.706+643.929+799.706+643.741L799.706+530.979L898.19+493.091L898.19+593.524C894.133+592.81+889.552+592.885+884.76+594.126C867.449+598.674+853.424+615.476+853.424+631.413C853.424+647.35+867.449+656.408+884.76+651.86C902.072+647.312+916.096+630.811+916.096+614.874L916.096+460.916C916.096+455.616+912.074+451.293+907.143+451.293Z" fill="#dadada" stroke-linecap="round" opacity="1" stroke-linejoin="round"/>
</g>
<g id="Layer 7" vectornator:layerName="Layer 7">
<path d="M150.205+517.632L150.632+517.649C155.537+518.053+159.79+519.678+163.39+522.522C165.491+524.01+167.143+525.823+168.345+527.962C169.759+530.578+170.293+533.251+169.947+535.98L169.943+536.034C169.657+538.477+168.728+540.48+167.155+542.044C165.609+543.212+163.498+543.69+160.822+543.479C157.742+543.217+155.012+542.282+152.634+540.676C152.134+540.224+151.916+539.836+151.978+539.514L151.989+539.352C152.008+539.064+152.517+538.777+153.514+538.49C155.354+537.803+156.689+536.284+157.519+533.934C158.349+531.585+158.142+529.664+156.897+528.173C155.393+526.889+153.445+526.146+151.054+525.946C147.73+525.675+144.877+526.422+142.496+528.19C140.115+529.957+138.798+531.828+138.543+533.803L138.528+534.019C138.081+537.646+140.997+541.872+147.277+546.695C148.712+547.797+150.895+549.883+153.828+552.954C160.084+560.556+162.773+567.876+161.893+574.915C161.157+581.021+157.836+586.469+151.93+591.259C149.229+593.248+147.333+594.474+146.242+594.938C139.701+598.26+133.167+599.651+126.64+599.112C120.233+598.614+114.259+596.527+108.717+592.85C102.382+588.241+99.578+582.956+100.304+576.993L100.369+576.942C100.91+572.524+103.04+568.113+106.759+563.709C112.144+558.177+117.815+555.67+123.773+556.187C128.719+556.593+132.801+559.24+136.019+564.126C132.209+565.027+128.876+566.09+126.022+567.315C123.886+568.172+121.511+569.542+118.898+571.427C116.572+573.286+114.969+575.011+114.088+576.601C113.257+578.049+112.791+579.222+112.69+580.12L112.6+580.55C112.326+582.813+113.799+584.547+117.02+585.753C118.254+586.197+119.661+586.486+121.242+586.618L121.787+586.693C126.369+587.049+131.176+586.187+136.207+584.107C142.564+581.102+146.061+576.978+146.698+571.734C147.28+566.705+145.284+561.829+140.709+557.107C139.865+556.317+137.995+554.729+135.098+552.345C131.875+549.335+129.808+547.036+128.896+545.45C126.336+541.671+125.307+537.878+125.807+534.073C126.384+529.115+129.173+524.91+134.174+521.457C139.024+518.431+144.368+517.156+150.205+517.632Z" opacity="1" fill="#000000"/>
<path d="M191.636+520.735C195.824+520.896+199.456+522.352+202.532+525.104C204.478+527.091+205.389+529.003+205.266+530.838L205.247+531.108C205.151+532.548+202.737+538.752+198.007+549.722C195.947+554.298+193.917+558.73+191.917+563.02L192.71+563.051C197.711+563.242+202.724+563.254+207.749+563.086C214.534+548.226+220.619+536.208+226.004+527.032C227.462+524.742+228.54+523.25+229.239+522.555C229.744+522.322+230.22+522.214+230.667+522.231C232.456+522.299+234.882+523.511+237.944+525.866C239.015+526.917+239.518+527.929+239.452+528.901L239.438+529.116C239.312+530.988+236.666+536.101+231.5+544.455C227.209+551.905+222.945+560.474+218.708+570.163C214.471+579.852+212.124+588.098+211.668+594.901L211.642+595.279C211.579+596.214+211.539+597.422+211.522+598.901C211.557+598.974+211.574+599.029+211.572+599.065C211.526+599.135+211.259+599.161+210.772+599.142C206.828+598.991+203.294+597.593+200.17+594.947C198.104+592.919+197.135+590.97+197.26+589.098L197.289+588.666C197.376+587.37+199.495+581.912+203.646+572.292C200.515+572.173+195.328+571.721+188.084+570.938C183.072+581.247+178.721+589.29+175.032+595.067C173.988+596.65+173.324+597.437+173.039+597.426C172.745+597.559+172.332+597.633+171.801+597.649C170.053+597.582+167.706+596.41+164.761+594.132C163.568+593.076+163.007+592.026+163.077+590.982L163.099+590.658C163.219+588.858+165.956+583.316+171.307+574.03L173.882+569.366L173.821+569.364C171.554+569.132+170.447+568.621+170.5+567.829L170.522+567.505C170.534+567.325+171.456+565.43+173.288+561.819C173.64+561.436+173.999+561.251+174.365+561.265L174.486+561.27L178.124+561.734C185.916+547.67+190.165+535.366+190.873+524.82L190.876+524.766C190.939+523.83+190.983+522.569+191.008+520.982C190.972+520.908+190.955+520.854+190.958+520.818C191.085+520.75+191.311+520.723+191.636+520.735Z" opacity="1" fill="#000000"/>
<path d="M269.603+522.424L269.725+522.428C277.246+522.717+282.683+525.83+286.035+531.768C287.547+534.749+288.198+537.805+287.988+540.936L287.951+541.476C287.659+545.831+285.812+549.369+282.409+552.089C280.019+553.694+277.522+554.446+274.92+554.346C270.448+554.175+267.435+551.389+265.882+545.989C265.61+544.571+265.502+543.449+265.557+542.621C265.649+541.253+266+540.581+266.61+540.604L266.671+540.607C266.793+540.611+267.376+541.031+268.421+541.865C269.752+542.673+271.008+543.1+272.187+543.146C274.22+543.223+275.848+542.348+277.071+540.518C277.488+539.776+277.723+539.009+277.776+538.217L277.812+537.678C277.947+535.662+277.017+534.039+275.02+532.807C274.145+532.485+273.382+532.312+272.732+532.287L272+532.259C267.69+532.094+262.84+533.91+257.449+537.709C254.817+539.882+252.981+541.724+251.942+543.236C250.235+545.588+249.324+547.628+249.208+549.356L249.201+549.464C249.046+551.767+250.144+553.325+252.495+554.137C254.248+554.745+258.844+555.192+266.284+555.477L266.396+555.644L266.388+555.752C266.333+556.58+264.812+558.289+261.825+560.881C261.012+561.464+260.381+561.746+259.934+561.729C257.963+561.942+255.918+562.351+253.799+562.956C250.557+563.878+247.394+565.453+244.31+567.68C241.678+569.852+240.036+571.54+239.385+572.742C237.317+575.621+236.185+578.519+235.989+581.434L235.964+581.812C235.739+585.16+236.836+587.637+239.256+589.246C240.74+590.205+242.662+590.729+245.02+590.82C249.492+590.991+254.413+589.646+259.782+586.785C264.153+584.21+269.903+579.612+277.032+572.993C281.263+568.861+284.665+565.239+287.239+562.126C289.089+560.068+290.38+559.052+291.111+559.081L291.233+559.085C291.355+559.09+291.446+559.256+291.506+559.583C291.419+560.879+289.261+564.783+285.033+571.297C282.321+575.271+278.789+579.61+274.438+584.315C262.139+596.907+250.481+602.991+239.462+602.569C233.201+602.329+227.974+600.036+223.782+595.69C220.465+591.665+218.967+587.26+219.288+582.472L219.31+582.149C219.687+576.534+222.48+571.047+227.69+565.69C228.832+564.471+230.602+563.005+232.999+561.292C236.751+558.838+239.919+557.191+242.502+556.352C242.796+556.219+243.254+556.074+243.876+555.918L243.884+555.81C242.391+555.572+240.545+554.834+238.346+553.595C235.58+551.684+234.302+549.164+234.512+546.032C234.809+541.605+237.836+536.886+243.594+531.874C247.418+528.953+250.355+527.099+252.405+526.312C258.219+523.503+263.951+522.207+269.603+522.424Z" opacity="1" fill="#000000"/>
<path d="M378.251+532.666L379.165+532.734C384.975+533.168+389.42+535.649+392.501+540.176C393.968+542.777+394.593+545.189+394.378+547.412C393.749+553.901+390.558+560.018+384.804+565.764C382.476+567.829+380.848+569.007+379.919+569.299C378.438+569.802+376.926+569.996+375.382+569.881C372.213+569.644+369.437+568.516+367.055+566.497C366.619+565.922+366.421+565.438+366.459+565.044C366.497+564.649+367.656+563.671+369.935+562.107C374.257+558.891+377.034+556.625+378.267+555.309C381.767+551.706+383.856+548.522+384.533+545.756C384.638+545.511+384.71+545.192+384.748+544.797L384.754+544.743C384.841+543.847+384.335+543.358+383.238+543.276C378.282+542.906+372.312+546.234+365.329+553.259C363.15+555.48+361.122+557.82+359.247+560.28C356.302+564.069+353.496+568.535+350.828+573.681C348.021+579.429+346.427+584.257+346.049+588.165L345.96+589.079C345.505+593.776+346.962+596.9+350.331+598.452C351.319+598.814+352.321+599.034+353.337+599.109C361.138+599.692+370.984+594.361+382.878+583.116C387.949+578.078+391.759+573.812+394.307+570.319C395.772+568.298+396.935+566.85+397.797+565.976C398.503+565.451+398.998+565.199+399.282+565.22L399.404+565.229C399.81+565.259+399.984+565.579+399.925+566.189L399.899+566.458C399.739+568.107+397.063+572.71+391.87+580.266C388.309+585.345+383.726+590.618+378.122+596.085C376.445+597.766+373.865+599.902+370.381+602.495C362.297+608.211+354.883+610.816+348.139+610.313L347.407+610.258C340.053+609.709+334.973+605.971+332.165+599.045C330.618+594.741+330.095+590.007+330.595+584.844C331.449+576.025+335.389+566.407+342.414+555.99C345.078+552.144+348.598+548.128+352.973+543.941C356.686+540.679+359.988+538.272+362.88+536.718C368.536+533.674+373.66+532.323+378.251+532.666Z" opacity="1" fill="#000000"/>
<path d="M414.607+538.198C416.232+538.319+418.373+539.454+421.029+541.602C422.083+542.548+422.56+543.54+422.46+544.58C422.328+545.942+420.606+549.353+417.294+554.811C412.19+563.566+408.754+569.466+406.985+572.512L406.985+572.512L407.046+572.516C410.133+568.955+413.976+565.198+418.574+561.244C424.569+556.383+429.395+554.09+433.052+554.363C434.271+554.454+435.996+555.233+438.227+556.699C440.341+558.121+441.331+559.513+441.199+560.875C441.067+562.238+439.151+565.958+435.452+572.038C431.559+578.427+428.157+584.403+425.245+589.963C423.676+593.06+422.602+595.489+422.022+597.251L422.011+597.359C421.98+597.681+422.107+597.853+422.391+597.875C423.894+597.987+428.574+594.454+436.431+587.277C440.345+583.634+443.561+580.425+446.08+577.652C449.004+574.512+451.274+571.775+452.892+569.44C454.152+567.837+455.148+567.063+455.879+567.117C456.316+567.258+456.502+567.651+456.44+568.297C456.2+570.77+451.512+577.552+442.376+588.642C431.601+601.018+423.959+607.037+419.449+606.701L418.535+606.633C415.447+606.402+412.929+604.932+410.982+602.223C409.99+600.632+409.571+599.048+409.724+597.47L409.739+597.309C409.847+596.198+410.564+594.5+411.89+592.215C419.273+578.106+422.98+570.89+423.011+570.567C423.072+570.355+423.115+570.123+423.14+569.872L423.161+569.657C423.111+569.328+422.964+569.155+422.72+569.137C421.06+569.374+417.498+572.141+412.033+577.439C405.909+583.626+401.27+588.84+398.117+593.083C394.876+597.391+393.141+600.728+392.912+603.094L392.829+603.954C392.811+604.134+392.805+604.404+392.811+604.766L392.684+604.81L391.831+604.747C388.54+604.501+385.943+603.007+384.04+600.265C383.048+598.674+382.632+597.054+382.792+595.405C382.893+594.365+383.661+592.563+385.096+589.998C395.718+569.486+402.796+555.985+406.33+549.496C409.146+544.507+411.332+540.951+412.888+538.828C413.303+538.353+413.875+538.143+414.607+538.198Z" opacity="1" fill="#000000"/>
<path d="M474.359+556.31C480.169+556.744+484.486+559.287+487.309+563.939C488.371+565.644+488.626+568.299+488.072+571.905C487.184+577.688+484.599+584.302+480.318+591.746C481.252+591.816+482.777+591.497+484.892+590.788C486.071+590.443+487.714+589.536+489.82+588.069C492.382+586.129+495.328+583.388+498.658+579.845C501.564+576.885+503.841+574.292+505.489+572.068C506.67+570.856+507.546+570.271+508.114+570.314C508.591+570.458+508.801+570.835+508.741+571.444C508.449+573.192+505.76+577.505+500.674+584.383C497.766+588.21+494.134+591.911+489.777+595.486C484.437+599.493+479.614+601.335+475.307+601.014L473.723+600.895C472.263+602.448+470.662+603.971+468.922+605.466C464.891+608.632+460.458+610.034+455.623+609.673C450.179+609.266+445.997+607.239+443.076+603.59C440.785+600.205+439.994+596.12+440.703+591.334C441.519+585.87+444.449+579.282+449.493+571.57C457.254+560.738+465.543+555.651+474.359+556.31ZM465.161+572.685C464.703+575.721+465.541+579.322+467.675+583.49C468.342+584.623+469.325+585.888+470.622+587.285C474.439+579.987+476.731+573.856+477.498+568.894C477.96+565.823+477.615+563.884+476.466+563.076C476.233+562.95+475.913+562.872+475.507+562.841C473.054+563.236+470.185+565.387+466.901+569.295C465.907+570.268+465.327+571.398+465.161+572.685ZM454.047+595.526C453.562+598.848+453.961+601.063+455.245+602.17L455.789+602.265C458.308+602.453+461.287+600.418+464.728+596.161C463.313+594.719+462.163+593.279+461.279+591.841C459.765+589.309+458.714+587.064+458.126+585.106C457.935+584.55+457.844+584.218+457.854+584.111C457.732+584.101+457.259+585.185+456.434+587.363C455.224+590.559+454.429+593.28+454.047+595.526Z" opacity="1" fill="#000000"/>
<path d="M517.297+545.867C519.003+545.994+521.253+547.263+524.048+549.675C524.784+550.524+525.114+551.343+525.038+552.132L525.027+552.24C524.909+553.459+524.073+555.328+522.52+557.848C521.79+558.624+520.998+558.98+520.145+558.917C519.292+558.853+517.35+557.986+514.32+556.315C512.451+554.911+511.568+553.672+511.672+552.596C511.7+552.31+512.771+550.548+514.885+547.311C515.477+546.272+516.26+545.789+517.236+545.862L517.297+545.867ZM508.413+560.261C510.201+560.395+512.453+561.646+515.17+564.016C515.95+564.832+516.297+565.689+516.21+566.585C516.071+568.019+513.843+572.222+509.525+579.194C504.843+586.97+501.173+593.593+498.515+599.064C497.511+601.408+496.996+602.706+496.972+602.957C496.934+603.351+497.097+603.562+497.463+603.589C499.377+603.263+503.633+600.096+510.231+594.088C519.048+585.864+524.919+579.549+527.842+575.145C529.051+573.647+530.026+572.871+530.768+572.818L530.829+572.823C531.317+572.859+531.524+573.254+531.451+574.007C531.246+576.122+527.555+581.696+520.378+590.73C508.056+605.554+499.376+612.778+494.338+612.402C490.56+612.119+487.868+610.329+486.264+607.032C485.594+605.501+485.336+603.947+485.488+602.37C485.679+600.398+487.581+595.972+491.194+589.092C496.63+577.762+501.243+569.006+505.034+562.826C506.074+561.387+506.763+560.608+507.102+560.488C507.448+560.297+507.885+560.222+508.413+560.261Z" opacity="1" fill="#000000"/>
<path d="M534.346+559.327C539.546+561.413+540.387+564.978+536.87+570.024C535.843+571.753+535.34+572.834+535.359+573.269C535.378+573.704+536.783+573.565+539.573+572.853C542.364+572.14+544.653+571.851+546.44+571.984C548.919+572.169+550.62+572.883+551.543+574.126C552.466+575.368+552.782+576.439+552.49+577.338C552.198+578.237+550.395+581.434+547.08+586.928L537.485+603.599C536.567+605.047+536.311+606.003+536.716+606.466C538.219+606.579+543.076+602.915+551.285+595.475C556.465+590.59+560.598+586.366+563.685+582.805C565.217+580.934+566.619+579.125+567.894+577.378C568.892+576.369+569.614+575.882+570.061+575.915L570.244+575.929C570.691+575.962+570.88+576.337+570.81+577.054C570.595+579.277+566.601+585.226+558.83+594.901C547.031+608.97+538.573+615.813+533.453+615.431C529.715+615.152+526.929+613.499+525.094+610.473C524.288+609.077+523.96+607.608+524.109+606.067C524.221+604.919+524.99+603.099+526.419+600.606C534.427+585.532+538.507+577.838+538.66+577.524C538.725+577.276+538.612+577.177+538.321+577.228C537.454+577.308+535.61+577.964+532.789+579.198C531.81+579.595+530.853+579.758+529.918+579.688L529.187+579.633C526.709+579.448+524.741+578.218+523.283+575.942C522.815+574.86+522.628+573.835+522.722+572.867C522.823+571.828+523.591+570.025+525.026+567.46C527.054+563.423+528.498+560.768+529.358+559.496C530.153+558.472+531.816+558.416+534.346+559.327Z" opacity="1" fill="#000000"/>
<g opacity="1">
<path d="M638.465+540.791L639.575+540.819C648.532+541.042+655.626+544.097+660.855+549.983C663.838+553.823+665.286+557.552+665.199+561.171L665.179+562.039C665.042+567.756+660.871+573.409+652.664+578.998C648.792+581.436+644.965+583.477+641.186+585.12C641.185+585.157+641.755+585.334+642.895+585.652C647.995+587.661+650.481+591.344+650.353+596.699C650.208+602.814+647.1+608.095+641.032+612.543C638.697+614.15+636.669+615.33+634.948+616.084C633.15+616.944+630.591+617.858+627.272+618.826C621.495+620.384+616.404+621.108+611.999+620.998C608.927+620.922+606.997+620.349+606.207+619.279C605.048+618.2+604.199+616.532+603.66+614.273C603.63+613.983+603.617+613.747+603.621+613.566L603.633+613.078C603.656+612.137+604.222+611.681+605.332+611.708C606.561+611.449+607.471+611.327+608.063+611.342L608.285+611.347L608.32+609.882C608.592+598.484+611.494+586.264+617.027+573.223C619.062+568.639+621.427+564.172+624.124+559.822C625.166+558.038+626.004+557.081+626.636+556.952C627.121+556.819+627.567+556.758+627.974+556.768C630.121+556.822+632.611+558.006+635.444+560.321C636.202+561.137+636.574+561.87+636.558+562.521L636.556+562.63C636.539+563.317+635.125+565.925+632.314+570.453C630.309+573.771+628.173+577.935+625.905+582.948C633.739+580.572+640.35+576.691+645.737+571.303C651.124+565.916+653.822+561.521+653.829+558.118L653.83+558.064C653.902+555.024+651.566+552.83+646.821+551.481C645.273+551.152+643.648+550.967+641.945+550.925C635.061+550.753+627.852+552.565+620.317+556.36C618.331+557.361+616.053+558.933+613.483+561.078C610.981+563.514+609.435+565.431+608.847+566.828C607.994+568.4+607.504+569.546+607.376+570.267C607.176+570.878+606.706+571.174+605.966+571.155L605.633+571.147C603.856+571.103+601.843+570.111+599.593+568.173C598.219+566.763+597.549+565.352+597.583+563.941C597.781+561.846+598.971+559.323+601.152+556.372C603.062+553.921+605.504+551.683+608.478+549.657C611.338+547.773+613.889+546.371+616.134+545.449C624.026+542.17+631.47+540.617+638.465+540.791ZM617.814+610.118C620.498+609.388+622.925+608.544+625.096+607.584C627.603+606.488+630.064+605.028+632.477+603.206C635.725+600.571+637.377+598.096+637.432+595.78L637.437+595.563C637.487+593.464+636.252+591.696+633.73+590.257C632.009+589.454+630.093+589.026+627.984+588.974L627.873+588.971C626.392+588.934+624.851+589.095+623.25+589.453C621.849+592.315+620.765+595.058+619.999+597.681C619.274+600.125+618.546+604.271+617.814+610.118Z" opacity="1" fill="#000000"/>
<path d="M672.212+558.304C677.057+560.126+678.046+563.663+675.181+568.914C674.36+570.704+673.973+571.816+674.018+572.252C674.063+572.687+675.327+572.475+677.811+571.613C680.294+570.752+682.35+570.341+683.978+570.382C686.236+570.438+687.823+571.066+688.739+572.265C689.654+573.465+690.009+574.524+689.802+575.442C689.595+576.36+688.164+579.664+685.51+585.355L677.877+602.598C677.138+604.1+676.967+605.073+677.363+605.518C678.733+605.552+682.9+601.619+689.866+593.718C694.248+588.541+697.725+584.084+700.295+580.346C701.564+578.386+702.72+576.496+703.763+574.676C704.604+573.611+705.227+573.083+705.634+573.093L705.801+573.097C706.208+573.107+706.403+573.474+706.386+574.198C706.332+576.441+703.092+582.624+696.666+592.747C686.871+607.492+679.642+614.807+674.978+614.691C671.573+614.606+668.943+613.092+667.087+610.15C666.268+608.79+665.877+607.332+665.914+605.776C665.941+604.618+666.523+602.75+667.658+600.171C673.955+584.615+677.162+576.675+677.281+576.352C677.324+576.1+677.215+576.006+676.954+576.072C676.174+576.198+674.545+576.954+672.067+578.34C671.205+578.789+670.348+579.003+669.497+578.982L668.83+578.966C666.573+578.909+664.711+577.777+663.245+575.568C662.752+574.506+662.517+573.486+662.54+572.509C662.565+571.46+663.147+569.61+664.284+566.959C665.864+562.798+667.004+560.057+667.702+558.735C668.357+557.665+669.86+557.521+672.212+558.304Z" opacity="1" fill="#000000"/>
<path d="M708.344+561.973L708.954+561.988C710.287+562.021+711.864+562.658+713.686+563.898C716.366+564.906+717.696+565.79+717.678+566.55C717.676+566.659+717.213+567.425+716.29+568.851C712.074+576.385+708.212+584.58+704.705+593.436C703.514+596.773+702.903+599.111+702.871+600.45L702.865+600.722C702.842+601.662+703.164+602.141+703.83+602.158C705.426+602.016+707.931+600.25+711.345+596.86C713.129+595.021+714.672+593.249+715.971+591.544C717.464+589.517+718.885+587.38+720.235+585.133C721.859+582.277+723.698+578.123+725.754+572.671C728.11+567.045+729.742+563.845+730.649+563.071C730.987+562.862+731.323+562.762+731.656+562.77L732.045+562.78C733.377+562.813+735.316+563.821+737.861+565.803C738.876+566.734+739.371+567.705+739.347+568.719C739.314+570.13+737.815+573.948+734.852+580.175C731.184+588.012+728.343+594.549+726.33+599.785C724.943+603.588+724.244+605.725+724.233+606.196L724.231+606.25C724.224+606.539+724.313+606.723+724.496+606.8L724.718+606.805C726.013+606.837+730.011+603.063+736.709+595.482C743.684+587.183+748.394+580.711+750.838+576.065C751.756+574.857+752.436+574.258+752.881+574.269L753.047+574.273C753.454+574.283+753.649+574.65+753.632+575.374C753.573+577.835+749.796+584.819+742.3+596.327C739.343+600.743+736.133+604.917+732.669+608.85C728.334+613.593+724.945+615.935+722.502+615.874C718.912+615.784+716.287+614.017+714.629+610.573C714.033+609.146+713.753+607.691+713.789+606.207C713.809+605.339+714.041+604.168+714.483+602.694C712.687+605.039+710.442+607.536+707.75+610.184C703.89+613.636+700.831+615.334+698.573+615.278C697.463+615.251+696.109+614.583+694.51+613.276C692.088+610.826+690.926+607.503+691.026+603.305C691.081+601.026+692.178+596.944+694.318+591.059C698.364+579.791+702.059+570.832+705.402+564.181C706.175+562.824+706.821+562.152+707.339+562.165C707.565+562.026+707.9+561.962+708.344+561.973Z" opacity="1" fill="#000000"/>
<path d="M759.839+562.006L761.005+562.035C761.634+562.05+761.939+562.456+761.92+563.252L761.904+563.958C761.893+564.392+761.922+565.497+761.991+567.273C761.969+568.214+761.695+568.822+761.17+569.099C760.541+569.083+759.768+569.643+758.852+570.779C758.579+571.352+758.436+571.927+758.422+572.506C758.376+574.424+759.89+577.72+762.964+582.395C767+588.614+768.976+593.533+768.889+597.151C773.686+591.695+777.408+587.027+780.056+583.146C781.321+581.331+782.708+579.103+784.215+576.461C785.015+575.54+785.636+575.084+786.081+575.096L786.136+575.097C786.469+575.105+786.648+575.363+786.673+575.871L786.663+576.305C786.61+578.512+783.41+584.606+777.061+594.585C774.29+598.969+770.998+603.468+767.184+608.079C761.971+613.924+756.015+616.762+749.316+616.596C744.541+616.477+740.648+614.37+737.634+610.277C736.17+607.995+735.467+605.643+735.525+603.218C735.606+599.817+737.176+596.869+740.235+594.374L740.291+594.376C740.8+594.787+741.045+595.354+741.028+596.078C740.471+597.693+740.18+599.044+740.154+600.129L740.137+600.835C740.078+603.295+741.201+605.152+743.504+606.404C744.642+606.83+745.692+607.056+746.654+607.08C749.171+607.142+751.543+606.296+753.77+604.541C755.813+602.709+756.866+600.491+756.928+597.886C757.001+594.846+755.604+591.281+752.739+587.191C749.46+581.823+747.86+577.457+747.941+574.092C748.025+570.546+749.825+567.296+753.339+564.342C755.637+562.734+757.803+561.955+759.839+562.006Z" opacity="1" fill="#000000"/>
<path d="M792.873+562.828L794.038+562.857C794.668+562.873+794.973+563.278+794.954+564.074L794.937+564.78C794.927+565.214+794.956+566.319+795.025+568.095C795.002+569.036+794.728+569.645+794.203+569.921C793.574+569.905+792.802+570.466+791.886+571.601C791.613+572.174+791.469+572.75+791.456+573.329C791.41+575.246+792.924+578.543+795.997+583.217C800.034+589.436+802.009+594.355+801.923+597.974C806.719+592.517+810.441+587.849+813.089+583.968C814.355+582.153+815.741+579.925+817.248+577.283C818.048+576.362+818.67+575.907+819.114+575.918L819.17+575.919C819.503+575.927+819.682+576.185+819.707+576.693L819.696+577.127C819.644+579.334+816.443+585.428+810.094+595.407C807.323+599.792+804.031+604.29+800.218+608.902C795.005+614.746+789.049+617.585+782.35+617.418C777.575+617.299+773.681+615.193+770.668+611.099C769.204+608.818+768.501+606.465+768.558+604.04C768.64+600.639+770.21+597.691+773.269+595.197L773.324+595.198C773.833+595.609+774.079+596.176+774.062+596.9C773.505+598.515+773.213+599.866+773.187+600.951L773.17+601.657C773.112+604.118+774.234+605.974+776.537+607.226C777.675+607.653+778.725+607.878+779.688+607.902C782.205+607.964+784.576+607.118+786.803+605.364C788.847+603.532+789.9+601.313+789.962+598.708C790.034+595.668+788.638+592.104+785.773+588.013C782.493+582.646+780.894+578.279+780.974+574.914C781.059+571.368+782.858+568.118+786.373+565.164C788.67+563.556+790.837+562.777+792.873+562.828Z" opacity="1" fill="#000000"/>
<path d="M828.972+565.519C832.748+565.613+836.383+566.898+839.88+569.375C841.192+570.24+842.119+571.766+842.659+573.951C843+575.191+843.154+576.498+843.121+577.873L843.11+578.362C843.003+582.848+840.886+587.756+836.759+593.084C835.314+594.677+834.046+595.804+832.956+596.465C830.553+597.854+828.297+598.522+826.187+598.469L825.521+598.452C823.152+598.394+821.008+597.453+819.088+595.631L819.033+595.63C817.754+599.581+817.088+602.66+817.035+604.867C816.97+607.617+817.854+609.359+819.688+610.092C820.312+610.325+820.865+610.447+821.346+610.459L821.846+610.472C825.51+610.563+830.62+607.468+837.177+601.187C841.352+596.946+844.606+593.243+846.941+590.079C849.696+586.346+852.349+582.285+854.898+577.895C855.358+577.218+855.718+576.883+855.977+576.89C856.458+576.902+856.692+577.197+856.678+577.776C856.631+579.73+854.364+584.76+849.874+592.867C847.439+597.152+844.166+601.632+840.055+606.309C837.127+609.495+834.533+611.892+832.273+613.501C827.378+616.855+822.414+618.469+817.38+618.344L816.659+618.326C814.216+618.265+812.264+617.8+810.803+616.931C807.986+615.485+806.042+613.174+804.969+609.997C804.309+608.171+804+606.371+804.042+604.598L804.067+603.567C804.124+601.178+805.165+597.131+807.19+591.425C809.253+585.647+811.479+580.833+813.867+576.982C815.026+574.983+816.613+572.85+818.63+570.583C820.791+568.501+822.376+567.255+823.386+566.846C824.926+565.907+826.789+565.464+828.972+565.519ZM820.51+591.919C821.305+592.736+822.184+593.156+823.147+593.18L823.202+593.181C825.46+593.237+828.104+591.076+831.134+586.699C831.94+585.524+832.775+583.879+833.64+581.765C834.672+578.894+835.207+576.626+835.247+574.962L835.26+574.419C835.294+572.971+834.886+572.237+834.035+572.216L833.923+572.213C831.407+572.151+827.483+577.484+822.154+588.213C821.334+589.967+820.787+591.202+820.51+591.919Z" opacity="1" fill="#000000"/>
<path d="M864.874+550.88C866.5+551.029+868.548+552.112+871.019+554.129C871.886+555.019+872.31+555.88+872.29+556.713L872.284+556.984C872.251+558.359+870.751+562.232+867.785+568.603C861.959+581.492+857.555+591.484+854.571+598.578C853.122+601.873+851.872+605.372+850.821+609.075L850.815+609.346C850.806+609.708+850.931+609.892+851.19+609.899C852.523+609.932+856.539+606.14+863.238+598.522C870.175+590.295+874.769+584.001+877.021+579.64C878.058+578.073+878.91+577.279+879.578+577.26C879.983+577.342+880.178+577.709+880.162+578.361C880.024+581.073+876.189+588.146+868.657+599.581C859.756+612.574+853.158+619.017+848.865+618.911L848.309+618.897C845.2+618.819+842.664+617.254+840.7+614.2C839.992+612.806+839.652+611.531+839.68+610.373L839.695+609.721C839.718+608.781+840.336+606.913+841.551+604.119C850.186+582.104+855.897+567.818+858.683+561.262C860.603+556.82+862.124+553.617+863.245+551.654C863.591+551.12+864.134+550.862+864.874+550.88Z" opacity="1" fill="#000000"/>
<path d="M885.644+565.137L886.81+565.166C887.439+565.182+887.744+565.588+887.725+566.384L887.708+567.089C887.698+567.523+887.727+568.629+887.796+570.404C887.773+571.345+887.5+571.954+886.975+572.23C886.345+572.215+885.573+572.775+884.657+573.911C884.384+574.483+884.241+575.059+884.227+575.638C884.181+577.555+885.695+580.852+888.769+585.526C892.805+591.746+894.78+596.664+894.694+600.283C899.491+594.827+903.213+590.158+905.861+586.278C907.126+584.463+908.512+582.234+910.02+579.593C910.819+578.671+911.441+578.216+911.885+578.227L911.941+578.228C912.274+578.237+912.453+578.495+912.478+579.002L912.468+579.436C912.415+581.644+909.214+587.737+902.866+597.717C900.095+602.101+896.803+606.599+892.989+611.211C887.776+617.055+881.82+619.894+875.121+619.727C870.346+619.608+866.452+617.502+863.439+613.408C861.975+611.127+861.272+608.774+861.33+606.35C861.411+602.948+862.981+600+866.04+597.506L866.096+597.507C866.604+597.918+866.85+598.486+866.833+599.209C866.276+600.825+865.984+602.175+865.959+603.261L865.942+603.966C865.883+606.427+867.005+608.283+869.309+609.535C870.447+609.962+871.497+610.187+872.459+610.211C874.976+610.274+877.348+609.428+879.575+607.673C881.618+605.841+882.671+603.622+882.733+601.017C882.806+597.978+881.409+594.413+878.544+590.323C875.265+584.955+873.665+580.588+873.745+577.223C873.83+573.677+875.63+570.427+879.144+567.474C881.442+565.865+883.608+565.086+885.644+565.137Z" opacity="1" fill="#000000"/>
</g>
</g>
</svg>
