<svg clip-rule="evenodd" fill-rule="evenodd" stroke-linecap="round" stroke-linejoin="round" stroke-miterlimit="1.5" viewBox="0 0 360 360" xmlns="http://www.w3.org/2000/svg"><g fill="none" stroke="#f5685c"><circle cx="180.391" cy="180.034" r="172.159" stroke-width="8"/><path d="m97.71 164.029c1.666-3.433 1.716-5.199 1.973-8.479.145-1.841.511-5.767-.719-8.44-2.241-4.872-6.792-8.042-10.017-10.291-10.409-7.256-24.613.011-29.475 14.531-3.307 9.873.239 18.549 7.48 25.921 8.255 8.404 22.416 15.008 27.098 24.373 2.88 5.761 5.759 14.489 2.118 21.772-2.171 4.341-2.223 6.189-6.686 8.421-5.083 2.541-12.73 3.438-20.985 2.365-9.96-1.294-20.589-5.128-25.845-8.109-4.328-2.455-10.419-6.272-14.772-10.484-1.726-1.67-3.18-3.402-4.142-5.135-3.707-6.679-13.506-26.908-14.318-29.166-.556-1.545 3.858 8.621 6.107 13.502.756 1.64 6.546 12.798 7.113 13.543 2.066 2.715 3.496 5.374 5.24 7.256 4.943 5.334 9.412 7.461 14.772 10.484 1.471.829 9.689 4.631 17.097 6.541 3.731.962 7.213 1.384 9.554 1.666 12.826 1.541 32.028-2.592 40.05-12.467 3.877-4.773 11.151-10.767 15.238-15.971 6.871-8.749 17.416-20.511 23.563-29.732 18.966-28.448 25.057-51.81 31.437-85.922 1.977-10.576 4.357-22.473 5.32-33.188.71-7.898.344-16.988-.217-24.956-.469-6.677-1.156-15.967-8.392-16.647-14.814-1.392-17.679 47.02-17.962 55.645-.317 9.671-.691 14.976-.573 23.419.229 16.463-.248 34.829.053 52.25.098 5.661.219 13.761.548 18.213.283 3.813-.439 3.527-.702 6.85-.552 6.963-.655 48.211-.655 48.211.962.086 3.308.768 3.704-.784 1.152-4.513-.933-46.273-.161-48.901 3.27-11.134 14.52-32.58 27.675-31.813 8.021.467 10.489 4.448 14.211 16.986 4.684 15.78 1.464 58.819 19.433 62.984 2.348.544 7.235-2.271 9.487-3.397 2.886-1.442 12.296-6.308 18.739-13.873 5.172-6.073 7.68-14.878 9.028-17.569 2.015-4.022 3.867-21.865 3.867-21.899 0-8.699.045-14.685 2.706-23.646 4.253-14.324 9.995-26.829 24.62-23.813 5.707 1.176 5.482 4.276 5.107 10.958-.378 6.753-6.952 13.173-10.555 17.37-3.634 4.231-14.564 6.026-19.559 8.522-2.9 1.45-2.073 5.496-2.319 10.609-.455 9.453-.227 24.41 4.179 34.423 2.941 6.683 7.546 8.675 10.449 10.897 3.244 2.481 15.897.35 19.974-.932 5.455-1.715 12.674-5.159 18.789-9.833 6.746-5.156 12.304-11.697 16.178-16.529 3.948-4.926 16.096-24.844 16.962-26.628" stroke-width="7.5"/><g stroke-linecap="butt"><path d="m178.086 15.628c.948.069 3.198.694 5.01 2.202.641.533 1.689 1.303 2.343 2.239.271.386.47.575.715 1.114.353.776.706 1.884.722 2.031.159 1.527.782 8.909.883 10.606.376 6.323-.066 12.56-.915 18.661-.558 4.011-3.379 19.767-4.057 19.767" stroke-width="7"/><path d="m34.59 223.435-12.316 23.783" stroke-linejoin="bevel" stroke-width="6"/><path d="m27.86 217.37-10.278 16.465" stroke-linejoin="bevel" stroke-width="6"/><path d="m19.663 205.227-7.712 11.982" stroke-linejoin="bevel" stroke-width="6"/><path d="m43.332 227.9-15.563 32.671" stroke-linejoin="bevel" stroke-width="6"/><path d="m53.087 231.003-20.27 41.017" stroke-linejoin="bevel" stroke-width="6"/><path d="m62.485 234.181-23.325 44.433" stroke-linejoin="bevel" stroke-width="6"/><path d="m73.304 235.279-26.547 54.246" stroke-linejoin="bevel" stroke-width="6"/><path d="m87.774 233.643-31.771 64.593" stroke-linejoin="bevel" stroke-width="6"/><path d="m100.764 227.94-38.179 76.431" stroke-linejoin="bevel" stroke-width="6"/><path d="m119.142 212.901-48.829 98.841" stroke-linejoin="bevel" stroke-width="6"/><path d="m143.571 183.382-66.097 134.097" stroke-linejoin="bevel" stroke-width="6"/><path d="m156.101 176.929-71.427 146.388" stroke-linejoin="bevel" stroke-width="6"/><path d="m188.394 138.005-93.719 189.795z" stroke-linejoin="bevel" stroke-width="6"/><path d="m198.28 144.189-93.733 188.365z" stroke-linejoin="bevel" stroke-width="6"/><path d="m202.497 160.756-87.929 176.465" stroke-linejoin="bevel" stroke-width="6"/><path d="m205.288 180.54-79.123 160.36" stroke-linejoin="bevel" stroke-width="6"/><path d="m208.11 196.632-73.614 149.227" stroke-linejoin="bevel" stroke-width="6"/><path d="m212.039 211.471-67.081 137.032" stroke-linejoin="bevel" stroke-width="6"/><path d="m222.551 218.17-65.048 133.362" stroke-linejoin="bevel" stroke-width="6"/><path d="m234.371 214.946-67.018 137.501" stroke-linejoin="bevel" stroke-width="6"/><path d="m252.365 199.351-73.933 152.888" stroke-linejoin="bevel" stroke-width="6"/><path d="m266.497 196.269-74.809 155.249" stroke-linejoin="bevel" stroke-width="6"/><path d="m276.184 206.156-70.778 144.307" stroke-linejoin="bevel" stroke-width="6"/><path d="m287.262 207.717-67.711 139.482" stroke-linejoin="bevel" stroke-width="6"/><path d="m300.714 206.732-66.802 135.507" stroke-linejoin="bevel" stroke-width="6"/><path d="m315.263 198.751-68.21 139.433" stroke-linejoin="bevel" stroke-width="6"/><path d="m335.855 176.341-72.955 154.511" stroke-linejoin="bevel" stroke-width="6"/><path d="m351.299 169.987-73.735 151.527" stroke-linejoin="bevel" stroke-width="6"/><path d="m350.659 196.643-55.152 109.825" stroke-linejoin="bevel" stroke-width="6"/></g></g></svg>