<?xml version="1.0" encoding="UTF-8" standalone="no"?>
<!DOCTYPE svg PUBLIC "-//W3C//DTD SVG 1.1//EN" "http://www.w3.org/Graphics/SVG/1.1/DTD/svg11.dtd">
<svg xmlns="http://www.w3.org/2000/svg" xmlns:serif="http://www.serif.com/" xmlns:xlink="http://www.w3.org/1999/xlink" width="100%" height="100%" style="fill-rule:evenodd;clip-rule:evenodd;stroke-linejoin:round;stroke-miterlimit:1.41421" version="1.1" viewBox="0 0 1117 683" xml:space="preserve">
    <title>
        SHE Choir Manchester
    </title>
    <g>
        <path d="M303.76,137.241l0,191.084l138.458,-190.68l-138.458,-0.404Z" style="fill:url(#_Linear1)"/>
        <path d="M540.594,0l-98.376,137.645l-138.458,0l236.834,-137.645Z" style="fill:url(#_Linear2)"/>
        <path d="M616.158,137.783l-173.94,-0.138l98.376,-137.645l75.564,137.783Z" style="fill:url(#_Linear3)"/>
        <path d="M777.02,137.645l-142.908,31.983l60.726,110.521l82.182,-142.504Zm0,0l-161.127,0l-75.299,-137.645l236.426,137.645Z" style="fill:url(#_Linear4)"/>
        <path d="M777.02,232.378l0,-94.733l-82.182,142.504l82.182,-47.771Z" style="fill:#c31e57;fill-rule:nonzero"/>
        <path d="M540.189,191.084l154.649,89.065l-60.726,-110.521l-93.923,21.456Zm75.704,-53.439l161.127,0l-142.908,31.983l-18.219,-31.983Z" style="fill:url(#_Linear5)"/>
        <path d="M468.938,310.916l-165.178,17.409l165.583,-95.947l-0.405,78.538Z" style="fill:url(#_Linear6)"/>
        <path d="M468.533,422.246l0.405,-111.33l-165.178,17.409l164.773,93.921Z" style="fill:url(#_Linear7)"/>
        <path d="M540.594,302.82l-71.656,-41.294l0,49.39l71.656,-8.096Z" style="fill:#de6348;fill-rule:nonzero"/>
        <path d="M468.533,422.246l72.061,-119.426l-71.656,8.096l-0.405,111.33Z" style="fill:#ea8a68;fill-rule:nonzero"/>
        <path d="M540.189,380.143l0,-77.323l-71.656,119.426l71.656,-42.103Z" style="fill:url(#_Linear8)"/>
        <path d="M442.218,137.645l173.675,0l18.219,31.983l-93.923,21.456l-236.429,137.645l138.458,-191.084Z" style="fill:url(#_Linear9)"/>
        <path d="M776.615,545.735l0,-191.084l-138.458,190.679l138.458,0.405Z" style="fill:url(#_Linear10)"/>
        <path d="M539.782,682.975l98.375,-137.645l138.458,0l-236.833,137.645Z" style="fill:url(#_Linear11)"/>
        <path d="M464.482,545.735l173.675,0l-98.375,137.24l-75.3,-137.24Z" style="fill:url(#_Linear12)"/>
        <path d="M303.355,545.33l161.127,0l75.3,137.645l-236.427,-137.645Z" style="fill:url(#_Linear13)"/>
        <path d="M446.263,513.348l-142.908,31.982l161.127,0l-18.219,-31.982Z" style="fill:url(#_Linear14)"/>
        <path d="M385.537,402.826l60.726,110.522l-142.908,31.982l82.182,-142.504Z" style="fill:url(#_Linear15)"/>
        <path d="M303.355,450.599l0,94.731l82.182,-142.504l-82.182,47.773Z" style="fill:#f0843c;fill-rule:nonzero"/>
        <path d="M540.186,491.891l-154.649,-89.065l60.726,110.522l93.923,-21.457Z" style="fill:url(#_Linear16)"/>
        <path d="M776.615,354.651l-236.429,137.24l97.971,53.844l138.458,-191.084Z" style="fill:url(#_Linear17)"/>
        <path d="M611.437,372.058l165.178,-17.407l-165.583,95.948l0.405,-78.541Z" style="fill:url(#_Linear18)"/>
        <path d="M611.842,260.729l-0.405,111.329l165.178,-17.407l-164.773,-93.922Z" style="fill:url(#_Linear19)"/>
        <path d="M539.782,380.155l71.655,41.294l0,-49.391l-71.655,8.097Z" style="fill:#d5514f;fill-rule:nonzero"/>
        <path d="M611.842,260.729l-72.06,119.426l71.655,-8.097l0.405,-111.329Z" style="fill:url(#_Linear20)"/>
        <path d="M540.186,302.832l0,77.323l71.656,-119.426l-71.656,42.103Z" style="fill:url(#_Linear21)"/>
        <path d="M638.157,545.735l-173.263,0.147l-18.631,-32.534l93.923,-21.457l97.971,53.844Z" style="fill:url(#_Linear22)"/>
        <path d="M127.947,382.055l0,16.579c0,35.32 -28.833,63.793 -64.153,63.793c-35.321,0 -63.794,-28.473 -63.794,-63.793l0,-16.579l44.692,0l0,16.579c0,10.452 8.649,19.101 19.102,19.101c10.812,0 19.102,-8.649 19.102,-19.101l0,-16.579c0,-10.453 -8.29,-19.102 -19.102,-19.102c-35.321,0 -63.794,-28.833 -63.794,-64.154l0,-16.218c0,-35.32 28.473,-63.793 63.794,-63.793c35.32,0 64.153,28.473 64.153,63.793l0,16.218l-45.051,0l0,-16.218c0,-10.813 -8.29,-19.102 -19.102,-19.102c-10.453,0 -19.102,8.289 -19.102,19.102l0,16.218c0,10.813 8.649,19.463 19.102,19.463c35.32,0 64.153,28.472 64.153,63.793Z" style="fill:#231f20;fill-rule:nonzero"/>
        <path d="M192.385,317.901l38.203,0l0,-94.068l45.051,0l0,232.467l-45.051,0l0,-93.707l-38.203,0l0,93.707l-44.692,0l0,-232.467l44.692,0l0,94.068Z" style="fill:#231f20;fill-rule:nonzero"/>
        <path d="M297.008,223.833l127.946,0l0,44.692l-83.255,0l0,49.376l60.91,0l0,44.692l-60.91,0l0,49.015l83.255,0l0,44.692l-127.946,0l0,-232.467Z" style="fill:#231f20;fill-rule:nonzero"/>
        <path d="M604.069,282.581l0,16.218l-45.052,0l0,-16.218c0,-10.813 -8.289,-19.102 -19.101,-19.102c-10.452,0 -19.102,8.289 -19.102,19.102l0,116.053c0,10.452 8.65,19.101 19.102,19.101c10.812,0 19.101,-8.649 19.101,-19.101l0,-16.579l45.052,0l0,16.579c0,35.32 -28.833,63.793 -64.153,63.793c-35.32,0 -63.794,-28.473 -63.794,-63.793l0,-116.053c0,-35.32 28.474,-63.793 63.794,-63.793c35.32,0 64.153,28.473 64.153,63.793Z" style="fill:#231f20;fill-rule:nonzero"/>
        <path d="M668.507,317.901l38.203,0l0,-94.068l45.052,0l0,232.467l-45.052,0l0,-93.707l-38.203,0l0,93.707l-44.692,0l0,-232.467l44.692,0l0,94.068Z" style="fill:#231f20;fill-rule:nonzero"/>
        <path d="M817.1,282.581l0,116.053c0,10.452 8.65,19.101 19.102,19.101c10.812,0 19.102,-8.649 19.102,-19.101l0,-116.053c0,-10.813 -8.29,-19.102 -19.102,-19.102c-10.452,0 -19.102,8.289 -19.102,19.102Zm-44.691,116.053l0,-116.053c0,-35.32 28.473,-63.793 63.793,-63.793c35.32,0 64.153,28.473 64.153,63.793l0,116.053c0,35.32 -28.833,63.793 -64.153,63.793c-35.32,0 -63.793,-28.473 -63.793,-63.793Z" style="fill:#231f20;fill-rule:nonzero"/>
        <rect width="44.694" height="232.467" x="921.038" y="223.833" style="fill:#231f20;fill-rule:nonzero"/>
        <path d="M1050.38,268.525c-10.45,0 -19.1,0 -19.1,0l0,81.453c0,0 8.65,0 19.1,0c10.82,0 19.11,-8.65 19.11,-19.102l0,-43.249c0,-10.452 -8.29,-19.102 -19.11,-19.102Zm36.77,114.611l29.55,73.164l-48.3,0l-24.86,-61.631l-12.26,0l0,61.631l-44.69,0l0,-232.467l63.79,0c35.32,0 64.16,28.473 64.16,63.794l0,43.249c0,21.625 -10.82,40.726 -27.39,52.26Z" style="fill:#231f20;fill-rule:nonzero"/>
    </g>
    <defs>
        <linearGradient id="_Linear1" x1="0" x2="1" y1="0" y2="0" gradientTransform="matrix(138.458,0,0,138.458,303.76,232.783)" gradientUnits="userSpaceOnUse">
            <stop offset="0" style="stop-color:#fcb451;stop-opacity:1"/>
            <stop offset="1" style="stop-color:#f19665;stop-opacity:1"/>
        </linearGradient>
        <linearGradient id="_Linear2" x1="0" x2="1" y1="0" y2="0" gradientTransform="matrix(236.834,0,0,236.834,303.76,68.822)" gradientUnits="userSpaceOnUse">
            <stop offset="0" style="stop-color:#fec661;stop-opacity:1"/>
            <stop offset="1" style="stop-color:#ed8f81;stop-opacity:1"/>
        </linearGradient>
        <linearGradient id="_Linear3" x1="0" x2="1" y1="0" y2="0" gradientTransform="matrix(173.94,0,0,173.94,442.218,68.891)" gradientUnits="userSpaceOnUse">
            <stop offset="0" style="stop-color:#e88860;stop-opacity:1"/>
            <stop offset="1" style="stop-color:#dc6968;stop-opacity:1"/>
        </linearGradient>
        <linearGradient id="_Linear4" x1="0" x2="1" y1="0" y2="0" gradientTransform="matrix(225.697,-15.7823,15.7823,225.697,550.716,144.76)" gradientUnits="userSpaceOnUse">
            <stop offset="0" style="stop-color:#ea8683;stop-opacity:1"/>
            <stop offset="1" style="stop-color:#d51e74;stop-opacity:1"/>
        </linearGradient>
        <linearGradient id="_Linear5" x1="0" x2="1" y1="0" y2="0" gradientTransform="matrix(236.831,0,0,236.831,540.189,208.897)" gradientUnits="userSpaceOnUse">
            <stop offset="0" style="stop-color:#e36970;stop-opacity:1"/>
            <stop offset="1" style="stop-color:#ca2667;stop-opacity:1"/>
        </linearGradient>
        <linearGradient id="_Linear6" x1="0" x2="1" y1="0" y2="0" gradientTransform="matrix(165.583,0,0,165.583,303.76,280.351)" gradientUnits="userSpaceOnUse">
            <stop offset="0" style="stop-color:#f7aa50;stop-opacity:1"/>
            <stop offset="1" style="stop-color:#eb8964;stop-opacity:1"/>
        </linearGradient>
        <linearGradient id="_Linear7" x1="0" x2="1" y1="0" y2="0" gradientTransform="matrix(165.178,0,0,165.178,303.76,366.581)" gradientUnits="userSpaceOnUse">
            <stop offset="0" style="stop-color:#fec661;stop-opacity:1"/>
            <stop offset="1" style="stop-color:#f2a37b;stop-opacity:1"/>
        </linearGradient>
        <linearGradient id="_Linear8" x1="0" x2="1" y1="0" y2="0" gradientTransform="matrix(71.6563,0,0,71.6563,468.533,362.533)" gradientUnits="userSpaceOnUse">
            <stop offset="0" style="stop-color:#fcd0bd;stop-opacity:1"/>
            <stop offset="1" style="stop-color:#f79c84;stop-opacity:1"/>
        </linearGradient>
        <linearGradient id="_Linear9" x1="0" x2="1" y1="0" y2="0" gradientTransform="matrix(330.352,0,0,330.352,303.76,233.187)" gradientUnits="userSpaceOnUse">
            <stop offset="0" style="stop-color:#f48a3a;stop-opacity:1"/>
            <stop offset="1" style="stop-color:#ce494d;stop-opacity:1"/>
        </linearGradient>
        <linearGradient id="_Linear10" x1="0" x2="1" y1="0" y2="0" gradientTransform="matrix(115.703,51.5142,-51.5142,115.703,685.036,440.04)" gradientUnits="userSpaceOnUse">
            <stop offset="0" style="stop-color:#dc5c75;stop-opacity:1"/>
            <stop offset="1" style="stop-color:#d4196e;stop-opacity:1"/>
        </linearGradient>
        <linearGradient id="_Linear11" x1="0" x2="1" y1="0" y2="0" gradientTransform="matrix(236.833,0,0,236.833,539.782,614.152)" gradientUnits="userSpaceOnUse">
            <stop offset="0" style="stop-color:#e98285;stop-opacity:1"/>
            <stop offset="1" style="stop-color:#c82052;stop-opacity:1"/>
        </linearGradient>
        <linearGradient id="_Linear12" x1="0" x2="1" y1="0" y2="0" gradientTransform="matrix(173.675,0,0,173.675,464.482,614.355)" gradientUnits="userSpaceOnUse">
            <stop offset="0" style="stop-color:#e78268;stop-opacity:1"/>
            <stop offset="1" style="stop-color:#dc5c6d;stop-opacity:1"/>
        </linearGradient>
        <linearGradient id="_Linear13" x1="0" x2="1" y1="0" y2="0" gradientTransform="matrix(236.426,0,0,236.426,303.355,614.152)" gradientUnits="userSpaceOnUse">
            <stop offset="0" style="stop-color:#fec663;stop-opacity:1"/>
            <stop offset="1" style="stop-color:#ed8f82;stop-opacity:1"/>
        </linearGradient>
        <linearGradient id="_Linear14" x1="0" x2="1" y1="0" y2="0" gradientTransform="matrix(161.126,0,0,161.126,303.355,529.339)" gradientUnits="userSpaceOnUse">
            <stop offset="0" style="stop-color:#f7ad52;stop-opacity:1"/>
            <stop offset="1" style="stop-color:#eb8e63;stop-opacity:1"/>
        </linearGradient>
        <linearGradient id="_Linear15" x1="0" x2="1" y1="0" y2="0" gradientTransform="matrix(142.908,0,0,142.908,303.355,474.078)" gradientUnits="userSpaceOnUse">
            <stop offset="0" style="stop-color:#f9c16c;stop-opacity:1"/>
            <stop offset="1" style="stop-color:#f3aa79;stop-opacity:1"/>
        </linearGradient>
        <linearGradient id="_Linear16" x1="0" x2="1" y1="0" y2="0" gradientTransform="matrix(154.649,0,0,154.649,385.537,458.087)" gradientUnits="userSpaceOnUse">
            <stop offset="0" style="stop-color:#f1975e;stop-opacity:1"/>
            <stop offset="1" style="stop-color:#e57c6b;stop-opacity:1"/>
        </linearGradient>
        <linearGradient id="_Linear17" x1="0" x2="1" y1="0" y2="0" gradientTransform="matrix(236.429,0,0,236.429,540.186,450.193)" gradientUnits="userSpaceOnUse">
            <stop offset="0" style="stop-color:#da5750;stop-opacity:1"/>
            <stop offset="1" style="stop-color:#c8245b;stop-opacity:1"/>
        </linearGradient>
        <linearGradient id="_Linear18" x1="0" x2="1" y1="0" y2="0" gradientTransform="matrix(165.583,0,0,165.583,611.032,402.625)" gradientUnits="userSpaceOnUse">
            <stop offset="0" style="stop-color:#dc606e;stop-opacity:1"/>
            <stop offset="1" style="stop-color:#d02269;stop-opacity:1"/>
        </linearGradient>
        <linearGradient id="_Linear19" x1="0" x2="1" y1="0" y2="0" gradientTransform="matrix(165.178,0,0,165.178,611.437,316.393)" gradientUnits="userSpaceOnUse">
            <stop offset="0" style="stop-color:#e77089;stop-opacity:1"/>
            <stop offset="1" style="stop-color:#d71f74;stop-opacity:1"/>
        </linearGradient>
        <linearGradient id="_Linear20" x1="0" x2="1" y1="0" y2="0" gradientTransform="matrix(72.0601,0,0,72.0601,539.782,320.442)" gradientUnits="userSpaceOnUse">
            <stop offset="0" style="stop-color:#e4756f;stop-opacity:1"/>
            <stop offset="1" style="stop-color:#e06371;stop-opacity:1"/>
        </linearGradient>
        <linearGradient id="_Linear21" x1="0" x2="1" y1="0" y2="0" gradientTransform="matrix(71.6553,0,0,71.6553,540.186,320.442)" gradientUnits="userSpaceOnUse">
            <stop offset="0" style="stop-color:#f4817a;stop-opacity:1"/>
            <stop offset="1" style="stop-color:#f26646;stop-opacity:1"/>
        </linearGradient>
        <linearGradient id="_Linear22" x1="0" x2="1" y1="0" y2="0" gradientTransform="matrix(24.6004,-71.4448,71.4448,24.6004,528.984,567.949)" gradientUnits="userSpaceOnUse">
            <stop offset="0" style="stop-color:#e26a46;stop-opacity:1"/>
            <stop offset="1" style="stop-color:#da5750;stop-opacity:1"/>
        </linearGradient>
    </defs>
</svg>
